<svg width="432" height="432" viewBox="0 0 432 432" fill="none" xmlns="http://www.w3.org/2000/svg">
<g id="ic_launcher_background" clip-path="url(#clip0)">
<rect id="background" width="432" height="432" fill="#FFAB00"/>
<rect id="Rectangle 12" x="-34" y="158.573" width="527.757" height="109.775" transform="rotate(-13.7648 -34 158.573)" fill="#E65100"/>
<g id="&#38;$!#%">
<path d="M114.616 198.079C113.224 192.886 114.769 187.428 119.248 181.706C114.888 178.601 112.285 175.472 111.441 172.319C110.583 169.12 110.977 166.231 112.622 163.654C114.267 161.076 116.828 159.322 120.305 158.39C124.107 157.371 127.218 157.482 129.637 158.722C132.103 159.95 133.703 161.931 134.435 164.667C135.131 167.263 134.623 169.909 132.91 172.604C132.07 173.922 131.293 175.1 130.577 176.136C130.11 176.808 129.038 178.089 127.358 179.98L143.617 190.308C144.343 187.082 144.24 183.731 143.308 180.253L148.733 178.8C150.112 183.946 150.054 188.832 148.56 193.456L158.975 200.057L151.117 202.163L145.997 198.913C143.204 203.14 139.002 206.005 133.392 207.509C128.57 208.801 124.484 208.479 121.133 206.545C117.782 204.61 115.61 201.788 114.616 198.079ZM131.939 202.084C136.019 200.991 139.116 198.918 141.23 195.867L123.662 184.549C120.452 188.887 119.331 192.865 120.3 196.481C120.971 198.985 122.363 200.749 124.476 201.773C126.623 202.738 129.11 202.842 131.939 202.084ZM117.422 170.716C118.005 172.896 119.882 175.076 123.051 177.258C123.199 177.07 124.295 175.782 126.339 173.396C127.114 172.393 127.729 171.259 128.185 169.994C128.688 168.716 128.815 167.614 128.566 166.687C128.243 165.481 127.454 164.575 126.198 163.967C124.942 163.359 123.456 163.285 121.74 163.745C120.025 164.205 118.771 165.087 117.978 166.393C117.172 167.653 116.987 169.094 117.422 170.716Z" fill="white"/>
<path d="M169.148 151.415L173.527 167.758C178.492 167.372 182.373 167.947 185.17 169.484C187.955 170.974 189.875 173.689 190.931 177.63C191.838 181.015 191.497 184.287 189.908 187.445C188.345 190.697 185.288 193.106 180.738 194.673L182.788 202.323L177.642 203.702L175.592 196.052C169.091 197.198 163.614 195.858 159.16 192.032L163.184 187.301C165.199 188.699 167.026 189.676 168.665 190.23C170.292 190.739 172.117 190.871 174.139 190.627L169.629 173.797C160.301 174.408 154.65 171.028 152.674 163.656C151.718 160.086 152.065 156.837 153.715 153.91C155.366 150.983 158.298 148.757 162.51 147.23L160.349 139.163L165.495 137.784L167.657 145.851C173.487 144.985 178.501 146.449 182.698 150.244L178.933 154.831C175.652 152.231 172.391 151.093 169.148 151.415ZM175.036 173.392L179.285 189.248C184.316 187.254 186.229 184.009 185.024 179.511C184.453 177.378 183.39 175.824 181.837 174.849C180.318 173.815 178.051 173.329 175.036 173.392ZM168.082 168.025L163.964 152.655C161.767 153.542 160.193 154.808 159.242 156.454C158.292 158.1 158.096 159.967 158.655 162.053C159.227 164.186 160.26 165.723 161.754 166.664C163.236 167.559 165.346 168.013 168.082 168.025Z" fill="white"/>
<path d="M186.824 141.163L192.805 139.56L202.141 174.403L196.16 176.005L186.824 141.163ZM206.011 187.454L199.335 189.243L197.546 182.566L204.222 180.778L206.011 187.454Z" fill="white"/>
<path d="M203.671 157.072L202.218 151.648L211.259 149.225L210.18 134.905L216.23 133.283L217.309 147.604L227.741 144.809L226.662 130.488L232.782 128.848L233.861 143.169L241.372 141.156L242.826 146.581L234.272 148.873L235.062 158.5L242.713 156.451L244.166 161.875L235.473 164.205L236.669 179.239L230.618 180.861L229.422 165.826L218.99 168.621L220.186 183.656L214.066 185.296L212.87 170.261L205.011 172.367L203.558 166.942L212.46 164.557L211.669 154.929L203.671 157.072ZM228.221 150.494L217.789 153.29L218.51 162.936L228.942 160.14L228.221 150.494Z" fill="white"/>
<path d="M260.973 172.727L274.96 117.547L280.732 116L266.815 171.162L260.973 172.727ZM297.732 148.566L298.534 151.556C299.441 154.941 299.297 157.837 298.103 160.244C296.91 162.651 294.667 164.295 291.375 165.177C288.222 166.022 285.504 165.707 283.22 164.232C280.983 162.744 279.411 160.308 278.504 156.923L277.703 153.933C276.796 150.548 276.969 147.669 278.221 145.296C279.474 142.923 281.653 141.32 284.76 140.488C287.959 139.631 290.694 139.917 292.965 141.346C295.224 142.728 296.813 145.135 297.732 148.566ZM290.257 161.004C292.112 160.507 293.364 159.526 294.015 158.059C294.665 156.593 294.705 154.793 294.134 152.661L293.388 149.879C292.196 145.428 289.698 143.712 285.896 144.73C284.135 145.203 282.922 146.149 282.259 147.569C281.642 148.976 281.62 150.746 282.191 152.879L282.937 155.661C284.154 160.205 286.594 161.986 290.257 161.004ZM263.929 131.46L264.73 134.45C265.637 137.835 265.494 140.731 264.3 143.138C263.107 145.545 260.864 147.189 257.572 148.071C254.419 148.916 251.701 148.601 249.417 147.126C247.18 145.638 245.608 143.202 244.701 139.817L243.9 136.827C242.993 133.442 243.166 130.563 244.418 128.19C245.671 125.817 247.85 124.214 250.956 123.382C254.156 122.525 256.891 122.811 259.162 124.24C261.421 125.622 263.01 128.029 263.929 131.46ZM256.454 143.898C258.308 143.401 259.561 142.42 260.212 140.953C260.862 139.487 260.902 137.688 260.33 135.555L259.585 132.773C258.392 128.322 255.895 126.606 252.093 127.624C250.331 128.097 249.119 129.043 248.456 130.463C247.839 131.87 247.817 133.64 248.388 135.773L249.133 138.555C250.351 143.099 252.791 144.88 256.454 143.898Z" fill="white"/>
</g>
</g>
<defs>
<clipPath id="clip0">
<rect width="432" height="432" fill="white"/>
</clipPath>
</defs>
</svg>
