<svg width="364" height="364" viewBox="0 0 364 364" fill="none" xmlns="http://www.w3.org/2000/svg">
<g id="ic_launcher_squircle" clip-path="url(#clip0)">
<g id="Squircle Preview">
<g id="Clipped Preview Icon" filter="url(#filter0_dd)">
<mask id="mask0" mask-type="alpha" maskUnits="userSpaceOnUse" x="38" y="38" width="288" height="288">
<path id="Squircle" d="M285 58C258 40.7371 218 38 182 38C146 38 106 40.7371 79 58C70.3643 63.5214 63.5214 70.3643 58 79C40.7371 106 38 146 38 182C38 218 40.7371 258 58 285C63.5214 293.636 70.3643 300.479 79 306C106 323.263 146 326 182 326C218 326 258 323.263 285 306C293.636 300.479 300.479 293.636 306 285C323.263 258 326 218 326 182C326 146 323.263 106 306 79C300.479 70.3643 293.636 63.5214 285 58Z" fill="#FF9800"/>
</mask>
<g mask="url(#mask0)">
<g id="Combined Foreground/Background">
<g id="Composite">
<g id="ic_launcher_background" clip-path="url(#clip1)">
<rect id="background" x="-34" y="-34" width="432" height="432" fill="#FFAB00"/>
<rect id="Rectangle 12" x="-68" y="124.573" width="527.757" height="109.775" transform="rotate(-13.7648 -68 124.573)" fill="#E65100"/>
<g id="&#38;$!#%">
<path d="M80.6159 164.079C79.2244 158.886 80.7685 153.428 85.2481 147.706C80.8878 144.601 78.2853 141.472 77.4405 138.319C76.5833 135.12 76.9772 132.231 78.6221 129.654C80.267 127.076 82.8281 125.322 86.3055 124.39C90.1074 123.371 93.218 123.482 95.6374 124.722C98.1031 125.95 99.7025 127.931 100.435 130.667C101.131 133.263 100.623 135.909 98.9098 138.604C98.0704 139.922 97.2926 141.1 96.5765 142.136C96.1105 142.808 95.0375 144.089 93.3578 145.98L109.617 156.308C110.343 153.082 110.24 149.731 109.308 146.253L114.733 144.8C116.112 149.946 116.054 154.832 114.56 159.456L124.975 166.057L117.117 168.163L111.997 164.913C109.204 169.14 105.002 172.005 99.3922 173.509C94.5703 174.801 90.4839 174.479 87.133 172.545C83.7821 170.61 81.6097 167.788 80.6159 164.079ZM97.9387 168.084C102.019 166.991 105.116 164.918 107.23 161.867L89.6622 150.549C86.4517 154.887 85.331 158.865 86.3001 162.481C86.9709 164.985 88.3629 166.749 90.4759 167.773C92.6229 168.738 95.1105 168.842 97.9387 168.084ZM83.4215 136.716C84.0054 138.896 85.8818 141.076 89.0505 143.258C89.1987 143.07 90.2948 141.782 92.3388 139.396C93.1137 138.393 93.7292 137.259 94.1853 135.994C94.6878 134.716 94.8148 133.614 94.5663 132.687C94.2433 131.481 93.4537 130.575 92.1977 129.967C90.9416 129.359 89.4558 129.285 87.7404 129.745C86.0249 130.205 84.7706 131.087 83.9775 132.393C83.172 133.653 82.9867 135.094 83.4215 136.716Z" fill="white"/>
<path d="M135.148 117.415L139.527 133.758C144.492 133.372 148.373 133.947 151.17 135.484C153.955 136.974 155.875 139.689 156.931 143.63C157.838 147.015 157.497 150.287 155.908 153.445C154.345 156.697 151.288 159.106 146.738 160.673L148.788 168.323L143.642 169.702L141.592 162.052C135.091 163.198 129.614 161.858 125.16 158.032L129.184 153.301C131.199 154.699 133.026 155.676 134.665 156.23C136.292 156.739 138.117 156.871 140.139 156.627L135.629 139.797C126.301 140.408 120.65 137.028 118.674 129.656C117.718 126.086 118.065 122.837 119.715 119.91C121.366 116.983 124.298 114.757 128.51 113.23L126.349 105.163L131.495 103.784L133.657 111.851C139.487 110.985 144.501 112.449 148.698 116.244L144.933 120.831C141.652 118.231 138.391 117.093 135.148 117.415ZM141.036 139.392L145.285 155.248C150.316 153.254 152.229 150.009 151.024 145.511C150.453 143.378 149.39 141.824 147.837 140.849C146.318 139.815 144.051 139.329 141.036 139.392ZM134.082 134.025L129.964 118.655C127.767 119.542 126.193 120.808 125.242 122.454C124.292 124.1 124.096 125.967 124.655 128.053C125.227 130.186 126.26 131.723 127.754 132.664C129.236 133.559 131.346 134.013 134.082 134.025Z" fill="white"/>
<path d="M152.824 107.163L158.805 105.56L168.141 140.403L162.16 142.005L152.824 107.163ZM172.011 153.454L165.335 155.243L163.546 148.566L170.222 146.778L172.011 153.454Z" fill="white"/>
<path d="M169.671 123.072L168.218 117.648L177.259 115.225L176.18 100.905L182.23 99.2834L183.309 113.604L193.741 110.809L192.662 96.4881L198.782 94.8482L199.861 109.169L207.372 107.156L208.826 112.581L200.272 114.873L201.062 124.5L208.713 122.451L210.166 127.875L201.473 130.205L202.669 145.239L196.618 146.861L195.422 131.826L184.99 134.621L186.186 149.656L180.066 151.296L178.87 136.261L171.011 138.367L169.558 132.942L178.46 130.557L177.669 120.929L169.671 123.072ZM194.221 116.494L183.789 119.29L184.51 128.936L194.942 126.14L194.221 116.494Z" fill="white"/>
<path d="M226.973 138.727L240.96 83.5467L246.732 82L232.815 137.162L226.973 138.727ZM263.732 114.566L264.534 117.556C265.441 120.941 265.297 123.837 264.103 126.244C262.91 128.651 260.667 130.295 257.375 131.177C254.222 132.022 251.504 131.707 249.22 130.232C246.983 128.744 245.411 126.308 244.504 122.923L243.703 119.933C242.796 116.548 242.969 113.669 244.221 111.296C245.474 108.923 247.653 107.32 250.76 106.488C253.959 105.631 256.694 105.917 258.965 107.346C261.224 108.728 262.813 111.135 263.732 114.566ZM256.257 127.004C258.112 126.507 259.364 125.526 260.015 124.059C260.665 122.593 260.705 120.793 260.134 118.661L259.388 115.879C258.196 111.428 255.698 109.712 251.896 110.73C250.135 111.203 248.922 112.149 248.259 113.569C247.642 114.976 247.62 116.746 248.191 118.879L248.937 121.661C250.154 126.205 252.594 127.986 256.257 127.004ZM229.929 97.4598L230.73 100.45C231.637 103.835 231.494 106.731 230.3 109.138C229.107 111.545 226.864 113.189 223.572 114.071C220.419 114.916 217.701 114.601 215.417 113.126C213.18 111.638 211.608 109.202 210.701 105.817L209.9 102.827C208.993 99.4421 209.166 96.5632 210.418 94.1902C211.671 91.8172 213.85 90.2145 216.956 89.3821C220.156 88.5249 222.891 88.8107 225.162 90.2396C227.421 91.6221 229.01 94.0288 229.929 97.4598ZM222.454 109.898C224.308 109.401 225.561 108.42 226.212 106.953C226.862 105.487 226.902 103.688 226.33 101.555L225.585 98.7729C224.392 94.3219 221.895 92.6058 218.093 93.6245C216.331 94.0966 215.119 95.0426 214.456 96.4626C213.839 97.8702 213.817 99.6404 214.388 101.773L215.133 104.555C216.351 109.099 218.791 110.88 222.454 109.898Z" fill="white"/>
</g>
</g>
<g id="ic_launcher_foreground" clip-path="url(#clip2)">
<g id="Plate" filter="url(#filter1_dddii)">
<g id="Group 15">
<g id="Group 15_2">
<g id="Mask Group">
<mask id="mask1" mask-type="alpha" maskUnits="userSpaceOnUse" x="-62" y="25" width="306" height="306">
<circle id="Ellipse 6" cx="91" cy="178" r="153" fill="#090809"/>
</mask>
<g mask="url(#mask1)">
<path id="Exclude" fill-rule="evenodd" clip-rule="evenodd" d="M287.314 195.214C288.178 199.33 288.627 203.55 288.627 207.849C288.627 252.115 241.029 288 182.314 288C123.598 288 76 252.115 76 207.849C76 179.635 95.3352 154.827 124.561 140.544C113.182 152.412 106.443 167.148 106.443 183.114C106.443 222.388 147.226 254.227 197.535 254.227C242.56 254.227 279.955 228.725 287.314 195.214Z" fill="#090809"/>
</g>
</g>
<g id="Mask Group_2">
<mask id="mask2" mask-type="alpha" maskUnits="userSpaceOnUse" x="134" y="33" width="306" height="306">
<circle id="Ellipse 7" cx="287" cy="186" r="153" fill="#090809"/>
</mask>
<g mask="url(#mask2)">
<path id="Exclude_2" fill-rule="evenodd" clip-rule="evenodd" d="M77.3134 195.214C76.4489 199.33 76 203.55 76 207.849C76 252.115 123.598 288 182.313 288C241.029 288 288.627 252.115 288.627 207.849C288.627 179.635 269.292 154.827 240.066 140.544C251.445 152.412 258.184 167.148 258.184 183.114C258.184 222.388 217.401 254.227 167.092 254.227C122.067 254.227 84.6717 228.725 77.3134 195.214Z" fill="#090809"/>
</g>
</g>
</g>
<g id="Group 16">
<circle id="Ellipse 5" cx="189" cy="346" r="153" fill="#D50000"/>
<path id="Vector 1" d="M164 280.001C137.68 257.387 113.012 257.282 103 258.329C113.218 281.571 119.411 287.853 129.629 286.91C138.886 286.057 152.234 283.141 164 280.001Z" fill="white"/>
<path id="Vector 3" d="M213 280.001C239.32 257.387 263.988 257.282 274 258.329C263.782 281.571 257.589 287.853 247.371 286.91C238.114 286.057 224.766 283.141 213 280.001Z" fill="white"/>
</g>
</g>
</g>
<g id="Group 14">
<g id="Group 15_3">
<g id="Mask Group_3">
<mask id="mask3" mask-type="alpha" maskUnits="userSpaceOnUse" x="-62" y="25" width="306" height="306">
<circle id="Ellipse 6_2" cx="91" cy="178" r="153" fill="#090809"/>
</mask>
<g mask="url(#mask3)">
<path id="Exclude_3" fill-rule="evenodd" clip-rule="evenodd" d="M287.314 195.214C288.178 199.33 288.627 203.55 288.627 207.849C288.627 252.115 241.029 288 182.314 288C123.598 288 76 252.115 76 207.849C76 179.635 95.3352 154.827 124.561 140.544C113.182 152.412 106.443 167.148 106.443 183.114C106.443 222.388 147.226 254.227 197.535 254.227C242.56 254.227 279.955 228.725 287.314 195.214Z" fill="#090809"/>
</g>
</g>
<g id="Mask Group_4">
<mask id="mask4" mask-type="alpha" maskUnits="userSpaceOnUse" x="134" y="33" width="306" height="306">
<circle id="Ellipse 7_2" cx="287" cy="186" r="153" fill="#090809"/>
</mask>
<g mask="url(#mask4)">
<path id="Exclude_4" fill-rule="evenodd" clip-rule="evenodd" d="M77.3134 195.214C76.4489 199.33 76 203.55 76 207.849C76 252.115 123.598 288 182.313 288C241.029 288 288.627 252.115 288.627 207.849C288.627 179.635 269.292 154.827 240.066 140.544C251.445 152.412 258.184 167.148 258.184 183.114C258.184 222.388 217.401 254.227 167.092 254.227C122.067 254.227 84.6717 228.725 77.3134 195.214Z" fill="#090809"/>
</g>
</g>
</g>
<g id="Group 16_2">
<circle id="Ellipse 5_2" cx="189" cy="346" r="153" fill="#D50000"/>
<path id="Vector 1_2" d="M164 280.001C137.68 257.387 113.012 257.282 103 258.329C113.218 281.571 119.411 287.853 129.629 286.91C138.886 286.057 152.234 283.141 164 280.001Z" fill="white"/>
<path id="Vector 3_2" d="M213 280.001C239.32 257.387 263.988 257.282 274 258.329C263.782 281.571 257.589 287.853 247.371 286.91C238.114 286.057 224.766 283.141 213 280.001Z" fill="white"/>
</g>
</g>
<rect id="Finish Layer" x="-34" y="-34" width="432" height="432" fill="url(#paint0_radial)" fill-opacity="0.1"/>
</g>
</g>
</g>
</g>
</g>
</g>
</g>
<defs>
<filter id="filter0_dd" x="34" y="38" width="296" height="300" filterUnits="userSpaceOnUse" color-interpolation-filters="sRGB">
<feFlood flood-opacity="0" result="BackgroundImageFix"/>
<feColorMatrix in="SourceAlpha" type="matrix" values="0 0 0 0 0 0 0 0 0 0 0 0 0 0 0 0 0 0 127 0"/>
<feOffset dy="4"/>
<feGaussianBlur stdDeviation="2"/>
<feColorMatrix type="matrix" values="0 0 0 0 0 0 0 0 0 0 0 0 0 0 0 0 0 0 0.12 0"/>
<feBlend mode="normal" in2="BackgroundImageFix" result="effect1_dropShadow"/>
<feColorMatrix in="SourceAlpha" type="matrix" values="0 0 0 0 0 0 0 0 0 0 0 0 0 0 0 0 0 0 127 0"/>
<feOffset dy="8"/>
<feGaussianBlur stdDeviation="2"/>
<feColorMatrix type="matrix" values="0 0 0 0 0 0 0 0 0 0 0 0 0 0 0 0 0 0 0.12 0"/>
<feBlend mode="normal" in2="effect1_dropShadow" result="effect2_dropShadow"/>
<feBlend mode="normal" in="SourceGraphic" in2="effect2_dropShadow" result="shape"/>
</filter>
<filter id="filter1_dddii" x="24" y="100" width="330" height="421" filterUnits="userSpaceOnUse" color-interpolation-filters="sRGB">
<feFlood flood-opacity="0" result="BackgroundImageFix"/>
<feColorMatrix in="SourceAlpha" type="matrix" values="0 0 0 0 0 0 0 0 0 0 0 0 0 0 0 0 0 0 127 0"/>
<feOffset/>
<feGaussianBlur stdDeviation="6"/>
<feColorMatrix type="matrix" values="0 0 0 0 0.662745 0 0 0 0 0.164706 0 0 0 0 0.0156863 0 0 0 0.24 0"/>
<feBlend mode="normal" in2="BackgroundImageFix" result="effect1_dropShadow"/>
<feColorMatrix in="SourceAlpha" type="matrix" values="0 0 0 0 0 0 0 0 0 0 0 0 0 0 0 0 0 0 127 0"/>
<feOffset dy="4"/>
<feColorMatrix type="matrix" values="0 0 0 0 0.662745 0 0 0 0 0.164706 0 0 0 0 0.0156863 0 0 0 0.24 0"/>
<feBlend mode="normal" in2="effect1_dropShadow" result="effect2_dropShadow"/>
<feColorMatrix in="SourceAlpha" type="matrix" values="0 0 0 0 0 0 0 0 0 0 0 0 0 0 0 0 0 0 127 0"/>
<feOffset dy="10"/>
<feGaussianBlur stdDeviation="6"/>
<feColorMatrix type="matrix" values="0 0 0 0 0.662745 0 0 0 0 0.164706 0 0 0 0 0.0156863 0 0 0 0.36 0"/>
<feBlend mode="normal" in2="effect2_dropShadow" result="effect3_dropShadow"/>
<feBlend mode="normal" in="SourceGraphic" in2="effect3_dropShadow" result="shape"/>
<feColorMatrix in="SourceAlpha" type="matrix" values="0 0 0 0 0 0 0 0 0 0 0 0 0 0 0 0 0 0 127 0" result="hardAlpha"/>
<feOffset dy="3"/>
<feComposite in2="hardAlpha" operator="arithmetic" k2="-1" k3="1"/>
<feColorMatrix type="matrix" values="0 0 0 0 1 0 0 0 0 1 0 0 0 0 1 0 0 0 0.6 0"/>
<feBlend mode="normal" in2="shape" result="effect4_innerShadow"/>
<feColorMatrix in="SourceAlpha" type="matrix" values="0 0 0 0 0 0 0 0 0 0 0 0 0 0 0 0 0 0 127 0" result="hardAlpha"/>
<feOffset dy="-3"/>
<feComposite in2="hardAlpha" operator="arithmetic" k2="-1" k3="1"/>
<feColorMatrix type="matrix" values="0 0 0 0 0.0862745 0 0 0 0 0.0862745 0 0 0 0 0.0862745 0 0 0 0.2 0"/>
<feBlend mode="normal" in2="effect4_innerShadow" result="effect5_innerShadow"/>
</filter>
<radialGradient id="paint0_radial" cx="0" cy="0" r="1" gradientUnits="userSpaceOnUse" gradientTransform="translate(78 77.9999) rotate(45) scale(294.156)">
<stop stop-color="white"/>
<stop offset="0.375691" stop-color="white" stop-opacity="0.502762"/>
<stop offset="1" stop-color="white" stop-opacity="0"/>
</radialGradient>
<clipPath id="clip0">
<rect width="364" height="364" fill="white"/>
</clipPath>
<clipPath id="clip1">
<rect width="432" height="432" fill="white" transform="translate(-34 -34)"/>
</clipPath>
<clipPath id="clip2">
<rect width="432" height="432" fill="white" transform="translate(-34 -34)"/>
</clipPath>
</defs>
</svg>
