<svg width="432" height="432" viewBox="0 0 432 432" fill="none" xmlns="http://www.w3.org/2000/svg">
<g id="ic_launcher_foreground" clip-path="url(#clip0)">
<g id="Plate" filter="url(#filter0_dddii)">
<g id="Group 15">
<g id="Group 15_2">
<g id="Mask Group">
<mask id="mask0" mask-type="alpha" maskUnits="userSpaceOnUse" x="-28" y="59" width="306" height="306">
<circle id="Ellipse 6" cx="125" cy="212" r="153" fill="#090809"/>
</mask>
<g mask="url(#mask0)">
<path id="Exclude" fill-rule="evenodd" clip-rule="evenodd" d="M321.314 229.214C322.178 233.33 322.627 237.55 322.627 241.849C322.627 286.115 275.029 322 216.314 322C157.598 322 110 286.115 110 241.849C110 213.635 129.335 188.827 158.561 174.544C147.182 186.412 140.443 201.148 140.443 217.114C140.443 256.388 181.226 288.227 231.535 288.227C276.56 288.227 313.955 262.725 321.314 229.214Z" fill="#090809"/>
</g>
</g>
<g id="Mask Group_2">
<mask id="mask1" mask-type="alpha" maskUnits="userSpaceOnUse" x="168" y="67" width="306" height="306">
<circle id="Ellipse 7" cx="321" cy="220" r="153" fill="#090809"/>
</mask>
<g mask="url(#mask1)">
<path id="Exclude_2" fill-rule="evenodd" clip-rule="evenodd" d="M111.313 229.214C110.449 233.33 110 237.55 110 241.849C110 286.115 157.598 322 216.313 322C275.029 322 322.627 286.115 322.627 241.849C322.627 213.635 303.292 188.827 274.066 174.544C285.445 186.412 292.184 201.148 292.184 217.114C292.184 256.388 251.401 288.227 201.092 288.227C156.067 288.227 118.672 262.725 111.313 229.214Z" fill="#090809"/>
</g>
</g>
</g>
<g id="Group 16">
<circle id="Ellipse 5" cx="223" cy="380" r="153" fill="#D50000"/>
<path id="Vector 1" d="M198 314.001C171.68 291.387 147.012 291.282 137 292.329C147.218 315.571 153.411 321.853 163.629 320.91C172.886 320.057 186.234 317.141 198 314.001Z" fill="white"/>
<path id="Vector 3" d="M247 314.001C273.32 291.387 297.988 291.282 308 292.329C297.782 315.571 291.589 321.853 281.371 320.91C272.114 320.057 258.766 317.141 247 314.001Z" fill="white"/>
</g>
</g>
</g>
<g id="Group 14">
<g id="Group 15_3">
<g id="Mask Group_3">
<mask id="mask2" mask-type="alpha" maskUnits="userSpaceOnUse" x="-28" y="59" width="306" height="306">
<circle id="Ellipse 6_2" cx="125" cy="212" r="153" fill="#090809"/>
</mask>
<g mask="url(#mask2)">
<path id="Exclude_3" fill-rule="evenodd" clip-rule="evenodd" d="M321.314 229.214C322.178 233.33 322.627 237.55 322.627 241.849C322.627 286.115 275.029 322 216.314 322C157.598 322 110 286.115 110 241.849C110 213.635 129.335 188.827 158.561 174.544C147.182 186.412 140.443 201.148 140.443 217.114C140.443 256.388 181.226 288.227 231.535 288.227C276.56 288.227 313.955 262.725 321.314 229.214Z" fill="#090809"/>
</g>
</g>
<g id="Mask Group_4">
<mask id="mask3" mask-type="alpha" maskUnits="userSpaceOnUse" x="168" y="67" width="306" height="306">
<circle id="Ellipse 7_2" cx="321" cy="220" r="153" fill="#090809"/>
</mask>
<g mask="url(#mask3)">
<path id="Exclude_4" fill-rule="evenodd" clip-rule="evenodd" d="M111.313 229.214C110.449 233.33 110 237.55 110 241.849C110 286.115 157.598 322 216.313 322C275.029 322 322.627 286.115 322.627 241.849C322.627 213.635 303.292 188.827 274.066 174.544C285.445 186.412 292.184 201.148 292.184 217.114C292.184 256.388 251.401 288.227 201.092 288.227C156.067 288.227 118.672 262.725 111.313 229.214Z" fill="#090809"/>
</g>
</g>
</g>
<g id="Group 16_2">
<circle id="Ellipse 5_2" cx="223" cy="380" r="153" fill="#D50000"/>
<path id="Vector 1_2" d="M198 314.001C171.68 291.387 147.012 291.282 137 292.329C147.218 315.571 153.411 321.853 163.629 320.91C172.886 320.057 186.234 317.141 198 314.001Z" fill="white"/>
<path id="Vector 3_2" d="M247 314.001C273.32 291.387 297.988 291.282 308 292.329C297.782 315.571 291.589 321.853 281.371 320.91C272.114 320.057 258.766 317.141 247 314.001Z" fill="white"/>
</g>
</g>
<rect id="Finish Layer" width="432" height="432" fill="url(#paint0_radial)" fill-opacity="0.1"/>
</g>
<defs>
<filter id="filter0_dddii" x="58" y="134" width="330" height="421" filterUnits="userSpaceOnUse" color-interpolation-filters="sRGB">
<feFlood flood-opacity="0" result="BackgroundImageFix"/>
<feColorMatrix in="SourceAlpha" type="matrix" values="0 0 0 0 0 0 0 0 0 0 0 0 0 0 0 0 0 0 127 0"/>
<feOffset/>
<feGaussianBlur stdDeviation="6"/>
<feColorMatrix type="matrix" values="0 0 0 0 0.662745 0 0 0 0 0.164706 0 0 0 0 0.0156863 0 0 0 0.24 0"/>
<feBlend mode="normal" in2="BackgroundImageFix" result="effect1_dropShadow"/>
<feColorMatrix in="SourceAlpha" type="matrix" values="0 0 0 0 0 0 0 0 0 0 0 0 0 0 0 0 0 0 127 0"/>
<feOffset dy="4"/>
<feColorMatrix type="matrix" values="0 0 0 0 0.662745 0 0 0 0 0.164706 0 0 0 0 0.0156863 0 0 0 0.24 0"/>
<feBlend mode="normal" in2="effect1_dropShadow" result="effect2_dropShadow"/>
<feColorMatrix in="SourceAlpha" type="matrix" values="0 0 0 0 0 0 0 0 0 0 0 0 0 0 0 0 0 0 127 0"/>
<feOffset dy="10"/>
<feGaussianBlur stdDeviation="6"/>
<feColorMatrix type="matrix" values="0 0 0 0 0.662745 0 0 0 0 0.164706 0 0 0 0 0.0156863 0 0 0 0.36 0"/>
<feBlend mode="normal" in2="effect2_dropShadow" result="effect3_dropShadow"/>
<feBlend mode="normal" in="SourceGraphic" in2="effect3_dropShadow" result="shape"/>
<feColorMatrix in="SourceAlpha" type="matrix" values="0 0 0 0 0 0 0 0 0 0 0 0 0 0 0 0 0 0 127 0" result="hardAlpha"/>
<feOffset dy="3"/>
<feComposite in2="hardAlpha" operator="arithmetic" k2="-1" k3="1"/>
<feColorMatrix type="matrix" values="0 0 0 0 1 0 0 0 0 1 0 0 0 0 1 0 0 0 0.6 0"/>
<feBlend mode="normal" in2="shape" result="effect4_innerShadow"/>
<feColorMatrix in="SourceAlpha" type="matrix" values="0 0 0 0 0 0 0 0 0 0 0 0 0 0 0 0 0 0 127 0" result="hardAlpha"/>
<feOffset dy="-3"/>
<feComposite in2="hardAlpha" operator="arithmetic" k2="-1" k3="1"/>
<feColorMatrix type="matrix" values="0 0 0 0 0.0862745 0 0 0 0 0.0862745 0 0 0 0 0.0862745 0 0 0 0.2 0"/>
<feBlend mode="normal" in2="effect4_innerShadow" result="effect5_innerShadow"/>
</filter>
<radialGradient id="paint0_radial" cx="0" cy="0" r="1" gradientUnits="userSpaceOnUse" gradientTransform="translate(112 112) rotate(45) scale(294.156)">
<stop stop-color="white"/>
<stop offset="0.375691" stop-color="white" stop-opacity="0.502762"/>
<stop offset="1" stop-color="white" stop-opacity="0"/>
</radialGradient>
<clipPath id="clip0">
<rect width="432" height="432" fill="white"/>
</clipPath>
</defs>
</svg>
