<svg width="432" height="432" viewBox="0 0 432 432" fill="none" xmlns="http://www.w3.org/2000/svg">
<g id="ic_launcher_foreground" clip-path="url(#clip0)">
<g id="Plate" filter="url(#filter0_dddii)">
<g id="Group 17">
<rect id="Rectangle 12" x="-80.9969" y="248.991" width="594.096" height="222.248" fill="#FF101F"/>
<g id="Group 18">
<g id="Evil Insult">
<path d="M153.775 285.741L153.775 265L166.325 265L166.325 268.036L157.217 268.036L157.217 273.507L165.435 273.507L165.435 276.513L157.217 276.513L157.217 282.735L166.325 282.735L166.325 285.741L153.775 285.741Z" fill="white"/>
<path d="M174.816 281.442L178.644 270.711L182.174 270.711L176.389 285.741L173.363 285.741L167.458 270.711L170.959 270.711L174.816 281.442Z" fill="white"/>
<path d="M187.601 285.741L184.426 285.741L184.426 270.711L187.601 270.711L187.601 285.741ZM187.749 268.276L184.278 268.276L184.278 265L187.749 265L187.749 268.276Z" fill="white"/>
<path d="M191.427 281.021L191.427 265L194.602 265L194.602 280.27C194.602 281.212 194.76 281.893 195.076 282.314C195.393 282.715 195.986 282.915 196.856 282.915L196.856 285.741C194.898 285.741 193.504 285.39 192.673 284.689C191.843 283.967 191.427 282.745 191.427 281.021Z" fill="white"/>
<path d="M208.078 265L211.519 265L211.519 285.741L208.078 285.741L208.078 265Z" fill="white"/>
<path d="M218.91 285.741L215.736 285.741L215.736 270.711L218.851 270.711L218.851 272.064C219.642 270.982 220.868 270.441 222.53 270.441C224.231 270.441 225.556 270.932 226.505 271.914C227.455 272.875 227.929 274.348 227.929 276.332L227.929 285.741L224.784 285.741L224.784 276.693C224.784 274.429 223.845 273.296 221.966 273.296C221.017 273.296 220.265 273.607 219.711 274.228C219.177 274.829 218.91 275.641 218.91 276.663L218.91 285.741Z" fill="white"/>
<path d="M241.914 272.936L239.57 274.649C239.194 274.148 238.769 273.797 238.295 273.597C237.82 273.396 237.167 273.296 236.336 273.296C234.794 273.296 234.022 273.807 234.022 274.829C234.022 275.39 234.24 275.811 234.675 276.092C235.13 276.372 235.852 276.573 236.841 276.693C238.66 276.893 240.015 277.374 240.905 278.136C241.815 278.877 242.27 279.979 242.27 281.442C242.27 282.885 241.776 284.007 240.787 284.809C239.818 285.61 238.413 286.011 236.574 286.011C233.824 286.011 231.837 285.18 230.61 283.516L233.014 281.773C233.706 282.715 234.883 283.186 236.544 283.186C237.355 283.186 237.988 283.045 238.443 282.765C238.898 282.464 239.125 282.053 239.125 281.532C239.125 280.951 238.908 280.53 238.473 280.27C238.057 280.009 237.246 279.799 236.04 279.639C232.578 279.198 230.848 277.625 230.848 274.919C230.848 273.537 231.332 272.445 232.302 271.643C233.271 270.841 234.635 270.441 236.396 270.441C239.026 270.441 240.866 271.272 241.914 272.936Z" fill="white"/>
<path d="M254.192 270.711L257.337 270.711L257.337 285.741L254.222 285.741L254.222 284.388C253.846 284.969 253.381 285.39 252.827 285.651C252.293 285.891 251.542 286.011 250.573 286.011C248.872 286.011 247.537 285.52 246.567 284.538C245.618 283.556 245.143 282.074 245.143 280.09L245.143 270.711L248.318 270.711L248.318 279.759C248.318 280.981 248.555 281.863 249.03 282.404C249.505 282.925 250.217 283.186 251.166 283.186C252.135 283.186 252.877 282.885 253.391 282.284C253.925 281.683 254.192 280.851 254.192 279.789L254.192 270.711Z" fill="white"/>
<path d="M260.76 281.021L260.76 265L263.934 265L263.934 280.27C263.934 281.212 264.093 281.893 264.409 282.314C264.726 282.715 265.319 282.915 266.189 282.915L266.189 285.741C264.231 285.741 262.837 285.39 262.006 284.689C261.175 283.967 260.76 282.745 260.76 281.021Z" fill="white"/>
<path d="M269.845 273.477L267.946 273.477L267.946 270.711L269.845 270.711L269.845 267.405L272.99 267.405L272.99 270.711L276.135 270.711L276.135 273.477L272.99 273.477L272.99 280.36C272.99 281.302 273.119 281.953 273.376 282.314C273.633 282.675 274.147 282.855 274.918 282.855L276.135 282.855L276.135 285.741L274.681 285.741C272.901 285.741 271.645 285.39 270.913 284.689C270.201 283.967 269.845 282.725 269.845 280.961L269.845 273.477Z" fill="white"/>
</g>
<g id="Generator">
<path d="M144.33 312.652L145.226 308.018L155.002 308.018L154.535 310.492C153.73 314.682 152.354 317.732 150.406 319.644C148.485 321.529 145.797 322.472 142.344 322.472C139.254 322.472 136.969 321.425 135.489 319.33C134.009 317.235 133.632 314.289 134.359 310.492L135.021 307.036C135.852 302.767 137.306 299.638 139.384 297.648C141.461 295.658 144.226 294.663 147.68 294.663C150.354 294.663 152.393 295.462 153.795 297.059C155.223 298.63 155.911 300.751 155.859 303.422L150.64 303.422C150.64 300.673 149.355 299.298 146.784 299.298C143.564 299.298 141.487 301.746 140.552 306.643L139.812 310.492C138.851 315.389 139.994 317.837 143.24 317.837C144.694 317.837 145.862 317.418 146.745 316.58C147.654 315.716 148.355 314.407 148.848 312.652L144.33 312.652Z" fill="white"/>
<path d="M168.569 316.541L171.879 319.212C170.191 321.385 167.582 322.472 164.05 322.472C161.376 322.472 159.416 321.647 158.169 319.997C156.923 318.295 156.546 316.161 157.04 313.595L157.585 310.924C158.156 307.939 159.234 305.726 160.818 304.286C162.402 302.82 164.557 302.1 167.283 302.126C169.88 302.152 171.698 302.977 172.736 304.6C173.801 306.224 174.06 308.463 173.515 311.317L173.087 313.556L161.986 313.556C161.441 316.672 162.363 318.23 164.752 318.23C166.335 318.23 167.608 317.667 168.569 316.541ZM166.504 306.368C164.635 306.368 163.362 307.572 162.687 309.981L168.802 309.981C169.166 307.572 168.4 306.368 166.504 306.368Z" fill="white"/>
<path d="M180.032 322.118L175.047 322.118L178.825 302.479L183.694 302.479L183.421 303.854C184.641 302.702 186.251 302.126 188.251 302.126C190.432 302.126 192.042 302.78 193.08 304.09C194.145 305.373 194.418 307.297 193.898 309.864L191.523 322.118L186.576 322.118L188.757 310.767C189.043 309.222 188.991 308.122 188.601 307.468C188.238 306.787 187.511 306.446 186.42 306.446C185.33 306.446 184.421 306.826 183.694 307.585C182.967 308.345 182.473 309.392 182.214 310.728L180.032 322.118Z" fill="white"/>
<path d="M208.012 316.541L211.323 319.212C209.635 321.385 207.026 322.472 203.494 322.472C200.82 322.472 198.859 321.647 197.613 319.997C196.367 318.295 195.99 316.161 196.483 313.595L197.029 310.924C197.6 307.939 198.678 305.726 200.261 304.286C201.845 302.82 204.001 302.1 206.727 302.126C209.324 302.152 211.141 302.977 212.18 304.6C213.245 306.224 213.504 308.463 212.959 311.317L212.53 313.556L201.43 313.556C200.885 316.672 201.806 318.23 204.195 318.23C205.779 318.23 207.052 317.667 208.012 316.541ZM205.948 306.368C204.078 306.368 202.806 307.572 202.131 309.981L208.246 309.981C208.61 307.572 207.844 306.368 205.948 306.368Z" fill="white"/>
<path d="M232.018 305.268L227.772 307.939C227.305 306.944 226.591 306.446 225.63 306.446C224.669 306.446 223.839 306.813 223.137 307.546C222.436 308.253 221.956 309.261 221.696 310.571L219.476 322.118L214.491 322.118L218.269 302.479L223.137 302.479L222.865 303.854C224.007 302.702 225.5 302.126 227.344 302.126C229.629 302.126 231.187 303.173 232.018 305.268Z" fill="white"/>
<path d="M230.2 317.287C230.2 315.035 230.953 313.32 232.459 312.142C233.965 310.937 236.042 310.335 238.691 310.335L242.547 310.335L242.78 309.196C242.988 308.07 242.897 307.311 242.508 306.918C242.118 306.499 241.235 306.289 239.859 306.289C238.898 306.289 238.145 306.407 237.6 306.643C237.055 306.852 236.523 307.284 236.003 307.939L232.809 305.347C233.796 304.064 234.9 303.212 236.12 302.794C237.392 302.348 239.067 302.126 241.145 302.126C243.767 302.126 245.624 302.702 246.714 303.854C247.805 304.98 248.116 306.774 247.649 309.235L245.156 322.118L240.288 322.118L240.599 320.587C239.561 321.843 238.029 322.472 236.003 322.472C234.289 322.472 232.887 322.001 231.797 321.058C230.732 320.115 230.2 318.858 230.2 317.287ZM241.69 314.773L241.846 314.027L238.574 314.027C236.315 314.027 235.185 314.891 235.185 316.619C235.185 317.824 236.003 318.426 237.639 318.426C238.808 318.426 239.703 318.151 240.327 317.601C240.976 317.025 241.43 316.083 241.69 314.773Z" fill="white"/>
<path d="M253.193 306.721L250.7 306.721L251.518 302.479L254.011 302.479L254.828 298.159L259.775 298.159L258.957 302.479L262.774 302.479L261.956 306.721L258.139 306.721L256.542 314.931C256.335 315.978 256.347 316.711 256.581 317.13C256.815 317.523 257.36 317.719 258.217 317.719L259.814 317.719L258.957 322.118L256.854 322.118C254.595 322.118 253.011 321.634 252.102 320.665C251.219 319.67 250.998 318.02 251.44 315.716L253.193 306.721Z" fill="white"/>
<path d="M280.303 311.081L279.836 313.438C279.239 316.475 278.122 318.74 276.486 320.233C274.877 321.726 272.669 322.472 269.865 322.472C267.191 322.472 265.243 321.66 264.023 320.037C262.802 318.413 262.465 316.214 263.01 313.438L263.477 311.081C264.075 308.07 265.191 305.831 266.827 304.365C268.489 302.872 270.735 302.126 273.565 302.126C276.24 302.126 278.161 302.924 279.33 304.522C280.524 306.119 280.849 308.306 280.303 311.081ZM270.488 318.23C272.825 318.23 274.305 316.58 274.928 313.281L275.318 311.238C275.889 307.991 275.045 306.368 272.786 306.368C270.423 306.368 268.956 307.991 268.385 311.238L267.995 313.281C267.658 314.931 267.671 316.174 268.034 317.012C268.424 317.824 269.242 318.23 270.488 318.23Z" fill="white"/>
<path d="M299 305.268L294.755 307.939C294.287 306.944 293.573 306.446 292.612 306.446C291.652 306.446 290.821 306.813 290.12 307.546C289.418 308.253 288.938 309.261 288.678 310.571L286.458 322.118L281.473 322.118L285.251 302.479L290.12 302.479L289.847 303.854C290.989 302.702 292.482 302.126 294.326 302.126C296.611 302.126 298.169 303.173 299 305.268Z" fill="white"/>
</g>
</g>
</g>
</g>
<rect id="Finish Layer" width="432" height="432" fill="url(#paint0_radial)" fill-opacity="0.1"/>
</g>
<defs>
<filter id="filter0_dddii" x="-92.9969" y="236.991" width="618.096" height="256.248" filterUnits="userSpaceOnUse" color-interpolation-filters="sRGB">
<feFlood flood-opacity="0" result="BackgroundImageFix"/>
<feColorMatrix in="SourceAlpha" type="matrix" values="0 0 0 0 0 0 0 0 0 0 0 0 0 0 0 0 0 0 127 0"/>
<feOffset/>
<feGaussianBlur stdDeviation="6"/>
<feColorMatrix type="matrix" values="0 0 0 0 0.195833 0 0 0 0 0.122849 0 0 0 0 0.110156 0 0 0 0.24 0"/>
<feBlend mode="normal" in2="BackgroundImageFix" result="effect1_dropShadow"/>
<feColorMatrix in="SourceAlpha" type="matrix" values="0 0 0 0 0 0 0 0 0 0 0 0 0 0 0 0 0 0 127 0"/>
<feOffset dy="4"/>
<feColorMatrix type="matrix" values="0 0 0 0 0.196078 0 0 0 0 0.121569 0 0 0 0 0.109804 0 0 0 0.24 0"/>
<feBlend mode="normal" in2="effect1_dropShadow" result="effect2_dropShadow"/>
<feColorMatrix in="SourceAlpha" type="matrix" values="0 0 0 0 0 0 0 0 0 0 0 0 0 0 0 0 0 0 127 0"/>
<feOffset dy="10"/>
<feGaussianBlur stdDeviation="6"/>
<feColorMatrix type="matrix" values="0 0 0 0 0.196078 0 0 0 0 0.121569 0 0 0 0 0.109804 0 0 0 0.36 0"/>
<feBlend mode="normal" in2="effect2_dropShadow" result="effect3_dropShadow"/>
<feBlend mode="normal" in="SourceGraphic" in2="effect3_dropShadow" result="shape"/>
<feColorMatrix in="SourceAlpha" type="matrix" values="0 0 0 0 0 0 0 0 0 0 0 0 0 0 0 0 0 0 127 0" result="hardAlpha"/>
<feOffset dy="3"/>
<feComposite in2="hardAlpha" operator="arithmetic" k2="-1" k3="1"/>
<feColorMatrix type="matrix" values="0 0 0 0 1 0 0 0 0 1 0 0 0 0 1 0 0 0 0.6 0"/>
<feBlend mode="normal" in2="shape" result="effect4_innerShadow"/>
<feColorMatrix in="SourceAlpha" type="matrix" values="0 0 0 0 0 0 0 0 0 0 0 0 0 0 0 0 0 0 127 0" result="hardAlpha"/>
<feOffset dy="-3"/>
<feComposite in2="hardAlpha" operator="arithmetic" k2="-1" k3="1"/>
<feColorMatrix type="matrix" values="0 0 0 0 0.0862745 0 0 0 0 0.0862745 0 0 0 0 0.0862745 0 0 0 0.2 0"/>
<feBlend mode="normal" in2="effect4_innerShadow" result="effect5_innerShadow"/>
</filter>
<radialGradient id="paint0_radial" cx="0" cy="0" r="1" gradientUnits="userSpaceOnUse" gradientTransform="translate(112 112) rotate(45) scale(294.156)">
<stop stop-color="white"/>
<stop offset="0.375691" stop-color="white" stop-opacity="0.502762"/>
<stop offset="1" stop-color="white" stop-opacity="0"/>
</radialGradient>
<clipPath id="clip0">
<rect width="432" height="432" fill="white"/>
</clipPath>
</defs>
</svg>
