<svg width="364" height="364" viewBox="0 0 364 364" fill="none" xmlns="http://www.w3.org/2000/svg">
<g id="ic_launcher_squircle" clip-path="url(#clip0)">
<g id="Squircle Preview">
<g id="Clipped Preview Icon" filter="url(#filter0_dd)">
<mask id="mask0" mask-type="alpha" maskUnits="userSpaceOnUse" x="38" y="38" width="288" height="288">
<path id="Squircle" d="M285 58C258 40.7371 218 38 182 38C146 38 106 40.7371 79 58C70.3643 63.5214 63.5214 70.3643 58 79C40.7371 106 38 146 38 182C38 218 40.7371 258 58 285C63.5214 293.636 70.3643 300.479 79 306C106 323.263 146 326 182 326C218 326 258 323.263 285 306C293.636 300.479 300.479 293.636 306 285C323.263 258 326 218 326 182C326 146 323.263 106 306 79C300.479 70.3643 293.636 63.5214 285 58Z" fill="#FF9800"/>
</mask>
<g mask="url(#mask0)">
<g id="Combined Foreground/Background">
<g id="Composite">
<g id="ic_launcher_background" clip-path="url(#clip1)">
<rect id="background" x="-34" y="-34" width="432" height="432" fill="#FFAB00"/>
<g id="Group 14">
<g id="Group 15">
<g id="Mask Group">
<mask id="mask1" mask-type="alpha" maskUnits="userSpaceOnUse" x="-63" y="-59" width="306" height="306">
<circle id="Ellipse 6" cx="90" cy="94" r="153" fill="#090809"/>
</mask>
<g mask="url(#mask1)">
<path id="Exclude" fill-rule="evenodd" clip-rule="evenodd" d="M286.314 111.214C287.178 115.33 287.627 119.55 287.627 123.849C287.627 168.115 240.029 204 181.314 204C122.598 204 75 168.115 75 123.849C75 95.6354 94.3352 70.8268 123.561 56.5436C112.182 68.4121 105.443 83.1484 105.443 99.1135C105.443 138.388 146.226 170.227 196.535 170.227C241.56 170.227 278.955 144.725 286.314 111.214Z" fill="#090809"/>
</g>
</g>
<g id="Mask Group_2">
<mask id="mask2" mask-type="alpha" maskUnits="userSpaceOnUse" x="133" y="-51" width="306" height="306">
<circle id="Ellipse 7" cx="286" cy="102" r="153" fill="#090809"/>
</mask>
<g mask="url(#mask2)">
<path id="Exclude_2" fill-rule="evenodd" clip-rule="evenodd" d="M76.3134 111.214C75.4489 115.33 75 119.55 75 123.849C75 168.115 122.598 204 181.313 204C240.029 204 287.627 168.115 287.627 123.849C287.627 95.6354 268.292 70.8268 239.066 56.5436C250.445 68.4121 257.184 83.1484 257.184 99.1135C257.184 138.388 216.401 170.227 166.092 170.227C121.067 170.227 83.6717 144.725 76.3134 111.214Z" fill="#090809"/>
</g>
</g>
</g>
<g id="Group 16">
<circle id="Ellipse 5" cx="188" cy="262" r="153" fill="#D50000"/>
<path id="Vector 1" d="M163 196.001C136.68 173.387 112.012 173.282 102 174.329C112.218 197.571 118.411 203.853 128.629 202.91C137.886 202.057 151.234 199.141 163 196.001Z" fill="white"/>
<path id="Vector 3" d="M212 196.001C238.32 173.387 262.988 173.282 273 174.329C262.782 197.571 256.589 203.853 246.371 202.91C237.114 202.057 223.766 199.141 212 196.001Z" fill="white"/>
</g>
</g>
</g>
<g id="ic_launcher_foreground" clip-path="url(#clip2)">
<g id="Plate" filter="url(#filter1_dddii)">
<g id="Group 17">
<rect id="Rectangle 12" x="-114.997" y="214.991" width="594.096" height="222.248" fill="#FF101F"/>
<g id="Group 18">
<g id="Evil Insult">
<path d="M119.775 251.741L119.775 231L132.325 231L132.325 234.036L123.217 234.036L123.217 239.507L131.435 239.507L131.435 242.513L123.217 242.513L123.217 248.735L132.325 248.735L132.325 251.741L119.775 251.741Z" fill="white"/>
<path d="M140.816 247.442L144.643 236.711L148.174 236.711L142.389 251.741L139.362 251.741L133.458 236.711L136.959 236.711L140.816 247.442Z" fill="white"/>
<path d="M153.601 251.741L150.426 251.741L150.426 236.711L153.601 236.711L153.601 251.741ZM153.749 234.276L150.278 234.276L150.278 231L153.749 231L153.749 234.276Z" fill="white"/>
<path d="M157.427 247.021L157.427 231L160.602 231L160.602 246.27C160.602 247.212 160.76 247.893 161.076 248.314C161.393 248.715 161.986 248.915 162.856 248.915L162.856 251.741C160.898 251.741 159.504 251.39 158.673 250.689C157.842 249.967 157.427 248.745 157.427 247.021Z" fill="white"/>
<path d="M174.078 231L177.519 231L177.519 251.741L174.078 251.741L174.078 231Z" fill="white"/>
<path d="M184.91 251.741L181.736 251.741L181.736 236.711L184.851 236.711L184.851 238.064C185.642 236.982 186.868 236.441 188.53 236.441C190.231 236.441 191.556 236.932 192.505 237.914C193.455 238.875 193.929 240.348 193.929 242.332L193.929 251.741L190.784 251.741L190.784 242.693C190.784 240.429 189.845 239.296 187.966 239.296C187.017 239.296 186.265 239.607 185.711 240.228C185.177 240.829 184.91 241.641 184.91 242.663L184.91 251.741Z" fill="white"/>
<path d="M207.914 238.936L205.57 240.649C205.194 240.148 204.769 239.797 204.295 239.597C203.82 239.396 203.167 239.296 202.336 239.296C200.794 239.296 200.022 239.807 200.022 240.829C200.022 241.39 200.24 241.811 200.675 242.092C201.13 242.372 201.852 242.573 202.841 242.693C204.66 242.893 206.015 243.374 206.905 244.136C207.815 244.877 208.27 245.979 208.27 247.442C208.27 248.885 207.776 250.007 206.787 250.809C205.818 251.61 204.413 252.011 202.574 252.011C199.824 252.011 197.837 251.18 196.61 249.516L199.014 247.773C199.706 248.715 200.883 249.186 202.544 249.186C203.355 249.186 203.988 249.045 204.443 248.765C204.898 248.464 205.125 248.053 205.125 247.532C205.125 246.951 204.908 246.53 204.473 246.27C204.057 246.009 203.246 245.799 202.04 245.639C198.578 245.198 196.848 243.625 196.848 240.919C196.848 239.537 197.332 238.445 198.301 237.643C199.271 236.841 200.635 236.441 202.396 236.441C205.026 236.441 206.866 237.272 207.914 238.936Z" fill="white"/>
<path d="M220.192 236.711L223.337 236.711L223.337 251.741L220.222 251.741L220.222 250.388C219.846 250.969 219.381 251.39 218.827 251.651C218.293 251.891 217.542 252.011 216.573 252.011C214.872 252.011 213.537 251.52 212.567 250.538C211.618 249.556 211.143 248.074 211.143 246.09L211.143 236.711L214.318 236.711L214.318 245.759C214.318 246.981 214.555 247.863 215.03 248.404C215.505 248.925 216.217 249.186 217.166 249.186C218.135 249.186 218.877 248.885 219.391 248.284C219.925 247.683 220.192 246.851 220.192 245.789L220.192 236.711Z" fill="white"/>
<path d="M226.76 247.021L226.76 231L229.934 231L229.934 246.27C229.934 247.212 230.093 247.893 230.409 248.314C230.726 248.715 231.319 248.915 232.189 248.915L232.189 251.741C230.231 251.741 228.837 251.39 228.006 250.689C227.175 249.967 226.76 248.745 226.76 247.021Z" fill="white"/>
<path d="M235.845 239.477L233.946 239.477L233.946 236.711L235.845 236.711L235.845 233.405L238.99 233.405L238.99 236.711L242.135 236.711L242.135 239.477L238.99 239.477L238.99 246.36C238.99 247.302 239.119 247.953 239.376 248.314C239.633 248.675 240.147 248.855 240.918 248.855L242.135 248.855L242.135 251.741L240.681 251.741C238.901 251.741 237.645 251.39 236.913 250.689C236.201 249.967 235.845 248.725 235.845 246.961L235.845 239.477Z" fill="white"/>
</g>
<g id="Generator">
<path d="M110.33 278.652L111.226 274.018L121.002 274.018L120.535 276.492C119.73 280.682 118.354 283.732 116.406 285.644C114.485 287.529 111.797 288.472 108.344 288.472C105.254 288.472 102.969 287.425 101.489 285.33C100.009 283.235 99.6322 280.289 100.359 276.492L101.021 273.036C101.852 268.767 103.306 265.638 105.384 263.648C107.461 261.658 110.226 260.663 113.68 260.663C116.354 260.663 118.393 261.462 119.795 263.059C121.223 264.63 121.911 266.751 121.859 269.422L116.64 269.422C116.64 266.673 115.355 265.298 112.784 265.298C109.564 265.298 107.487 267.746 106.552 272.643L105.812 276.492C104.851 281.389 105.994 283.837 109.24 283.837C110.694 283.837 111.862 283.418 112.745 282.58C113.654 281.716 114.355 280.407 114.848 278.652L110.33 278.652Z" fill="white"/>
<path d="M134.569 282.541L137.879 285.212C136.191 287.385 133.582 288.472 130.05 288.472C127.376 288.472 125.416 287.647 124.169 285.997C122.923 284.295 122.546 282.161 123.04 279.595L123.585 276.924C124.156 273.939 125.234 271.726 126.818 270.286C128.402 268.82 130.557 268.1 133.283 268.126C135.88 268.152 137.698 268.977 138.736 270.6C139.801 272.224 140.06 274.463 139.515 277.317L139.087 279.556L127.986 279.556C127.441 282.672 128.363 284.23 130.752 284.23C132.335 284.23 133.608 283.667 134.569 282.541ZM132.504 272.368C130.635 272.368 129.362 273.572 128.687 275.981L134.802 275.981C135.166 273.572 134.4 272.368 132.504 272.368Z" fill="white"/>
<path d="M146.032 288.118L141.047 288.118L144.825 268.479L149.694 268.479L149.421 269.854C150.641 268.702 152.251 268.126 154.251 268.126C156.432 268.126 158.042 268.78 159.08 270.09C160.145 271.373 160.418 273.297 159.898 275.864L157.523 288.118L152.576 288.118L154.757 276.767C155.043 275.222 154.991 274.122 154.601 273.468C154.238 272.787 153.511 272.446 152.42 272.446C151.33 272.446 150.421 272.826 149.694 273.586C148.967 274.345 148.473 275.392 148.214 276.728L146.032 288.118Z" fill="white"/>
<path d="M174.012 282.541L177.323 285.212C175.635 287.385 173.026 288.472 169.494 288.472C166.82 288.472 164.859 287.647 163.613 285.997C162.367 284.295 161.99 282.161 162.483 279.595L163.029 276.924C163.6 273.939 164.678 271.726 166.261 270.286C167.845 268.82 170.001 268.1 172.727 268.126C175.324 268.152 177.141 268.977 178.18 270.6C179.245 272.224 179.504 274.463 178.959 277.317L178.53 279.556L167.43 279.556C166.885 282.672 167.806 284.23 170.195 284.23C171.779 284.23 173.052 283.667 174.012 282.541ZM171.948 272.368C170.078 272.368 168.806 273.572 168.131 275.981L174.246 275.981C174.61 273.572 173.844 272.368 171.948 272.368Z" fill="white"/>
<path d="M198.018 271.268L193.772 273.939C193.305 272.944 192.591 272.446 191.63 272.446C190.669 272.446 189.839 272.813 189.137 273.546C188.436 274.253 187.956 275.261 187.696 276.571L185.476 288.118L180.491 288.118L184.269 268.479L189.137 268.479L188.865 269.854C190.007 268.702 191.5 268.126 193.344 268.126C195.629 268.126 197.187 269.173 198.018 271.268Z" fill="white"/>
<path d="M196.2 283.287C196.2 281.035 196.953 279.32 198.459 278.142C199.965 276.937 202.042 276.335 204.691 276.335L208.547 276.335L208.78 275.196C208.988 274.07 208.897 273.311 208.508 272.918C208.118 272.499 207.235 272.289 205.859 272.289C204.898 272.289 204.145 272.407 203.6 272.643C203.055 272.852 202.523 273.284 202.003 273.939L198.809 271.347C199.796 270.064 200.9 269.213 202.12 268.794C203.392 268.348 205.067 268.126 207.145 268.126C209.767 268.126 211.624 268.702 212.714 269.854C213.805 270.98 214.116 272.774 213.649 275.235L211.156 288.118L206.288 288.118L206.599 286.587C205.561 287.844 204.029 288.472 202.003 288.472C200.289 288.472 198.887 288.001 197.797 287.058C196.732 286.115 196.2 284.858 196.2 283.287ZM207.69 280.773L207.846 280.027L204.574 280.027C202.315 280.027 201.185 280.891 201.185 282.619C201.185 283.824 202.003 284.426 203.639 284.426C204.808 284.426 205.703 284.151 206.327 283.601C206.976 283.025 207.43 282.083 207.69 280.773Z" fill="white"/>
<path d="M219.193 272.721L216.7 272.721L217.518 268.479L220.011 268.479L220.828 264.159L225.775 264.159L224.957 268.479L228.774 268.479L227.956 272.721L224.139 272.721L222.542 280.931C222.335 281.978 222.347 282.711 222.581 283.13C222.815 283.523 223.36 283.719 224.217 283.719L225.814 283.719L224.957 288.118L222.854 288.118C220.595 288.118 219.011 287.634 218.102 286.665C217.219 285.67 216.998 284.02 217.44 281.716L219.193 272.721Z" fill="white"/>
<path d="M246.303 277.081L245.836 279.438C245.239 282.475 244.122 284.741 242.486 286.233C240.877 287.726 238.669 288.472 235.865 288.472C233.191 288.472 231.243 287.66 230.023 286.037C228.802 284.413 228.465 282.214 229.01 279.438L229.477 277.081C230.075 274.07 231.191 271.831 232.827 270.365C234.489 268.872 236.735 268.126 239.565 268.126C242.24 268.126 244.161 268.924 245.33 270.522C246.524 272.119 246.849 274.306 246.303 277.081ZM236.488 284.23C238.825 284.23 240.305 282.58 240.928 279.281L241.318 277.238C241.889 273.991 241.045 272.368 238.786 272.368C236.423 272.368 234.956 273.991 234.385 277.238L233.995 279.281C233.658 280.931 233.671 282.174 234.034 283.012C234.424 283.824 235.242 284.23 236.488 284.23Z" fill="white"/>
<path d="M265 271.268L260.755 273.939C260.287 272.944 259.573 272.446 258.612 272.446C257.652 272.446 256.821 272.813 256.12 273.546C255.418 274.253 254.938 275.261 254.678 276.571L252.458 288.118L247.473 288.118L251.251 268.479L256.12 268.479L255.847 269.854C256.989 268.702 258.482 268.126 260.326 268.126C262.611 268.126 264.169 269.173 265 271.268Z" fill="white"/>
</g>
</g>
</g>
</g>
<rect id="Finish Layer" x="-34" y="-34" width="432" height="432" fill="url(#paint0_radial)" fill-opacity="0.1"/>
</g>
</g>
</g>
</g>
</g>
</g>
</g>
<defs>
<filter id="filter0_dd" x="34" y="38" width="296" height="300" filterUnits="userSpaceOnUse" color-interpolation-filters="sRGB">
<feFlood flood-opacity="0" result="BackgroundImageFix"/>
<feColorMatrix in="SourceAlpha" type="matrix" values="0 0 0 0 0 0 0 0 0 0 0 0 0 0 0 0 0 0 127 0"/>
<feOffset dy="4"/>
<feGaussianBlur stdDeviation="2"/>
<feColorMatrix type="matrix" values="0 0 0 0 0 0 0 0 0 0 0 0 0 0 0 0 0 0 0.12 0"/>
<feBlend mode="normal" in2="BackgroundImageFix" result="effect1_dropShadow"/>
<feColorMatrix in="SourceAlpha" type="matrix" values="0 0 0 0 0 0 0 0 0 0 0 0 0 0 0 0 0 0 127 0"/>
<feOffset dy="8"/>
<feGaussianBlur stdDeviation="2"/>
<feColorMatrix type="matrix" values="0 0 0 0 0 0 0 0 0 0 0 0 0 0 0 0 0 0 0.12 0"/>
<feBlend mode="normal" in2="effect1_dropShadow" result="effect2_dropShadow"/>
<feBlend mode="normal" in="SourceGraphic" in2="effect2_dropShadow" result="shape"/>
</filter>
<filter id="filter1_dddii" x="-126.997" y="202.991" width="618.096" height="256.248" filterUnits="userSpaceOnUse" color-interpolation-filters="sRGB">
<feFlood flood-opacity="0" result="BackgroundImageFix"/>
<feColorMatrix in="SourceAlpha" type="matrix" values="0 0 0 0 0 0 0 0 0 0 0 0 0 0 0 0 0 0 127 0"/>
<feOffset/>
<feGaussianBlur stdDeviation="6"/>
<feColorMatrix type="matrix" values="0 0 0 0 0.195833 0 0 0 0 0.122849 0 0 0 0 0.110156 0 0 0 0.24 0"/>
<feBlend mode="normal" in2="BackgroundImageFix" result="effect1_dropShadow"/>
<feColorMatrix in="SourceAlpha" type="matrix" values="0 0 0 0 0 0 0 0 0 0 0 0 0 0 0 0 0 0 127 0"/>
<feOffset dy="4"/>
<feColorMatrix type="matrix" values="0 0 0 0 0.196078 0 0 0 0 0.121569 0 0 0 0 0.109804 0 0 0 0.24 0"/>
<feBlend mode="normal" in2="effect1_dropShadow" result="effect2_dropShadow"/>
<feColorMatrix in="SourceAlpha" type="matrix" values="0 0 0 0 0 0 0 0 0 0 0 0 0 0 0 0 0 0 127 0"/>
<feOffset dy="10"/>
<feGaussianBlur stdDeviation="6"/>
<feColorMatrix type="matrix" values="0 0 0 0 0.196078 0 0 0 0 0.121569 0 0 0 0 0.109804 0 0 0 0.36 0"/>
<feBlend mode="normal" in2="effect2_dropShadow" result="effect3_dropShadow"/>
<feBlend mode="normal" in="SourceGraphic" in2="effect3_dropShadow" result="shape"/>
<feColorMatrix in="SourceAlpha" type="matrix" values="0 0 0 0 0 0 0 0 0 0 0 0 0 0 0 0 0 0 127 0" result="hardAlpha"/>
<feOffset dy="3"/>
<feComposite in2="hardAlpha" operator="arithmetic" k2="-1" k3="1"/>
<feColorMatrix type="matrix" values="0 0 0 0 1 0 0 0 0 1 0 0 0 0 1 0 0 0 0.6 0"/>
<feBlend mode="normal" in2="shape" result="effect4_innerShadow"/>
<feColorMatrix in="SourceAlpha" type="matrix" values="0 0 0 0 0 0 0 0 0 0 0 0 0 0 0 0 0 0 127 0" result="hardAlpha"/>
<feOffset dy="-3"/>
<feComposite in2="hardAlpha" operator="arithmetic" k2="-1" k3="1"/>
<feColorMatrix type="matrix" values="0 0 0 0 0.0862745 0 0 0 0 0.0862745 0 0 0 0 0.0862745 0 0 0 0.2 0"/>
<feBlend mode="normal" in2="effect4_innerShadow" result="effect5_innerShadow"/>
</filter>
<radialGradient id="paint0_radial" cx="0" cy="0" r="1" gradientUnits="userSpaceOnUse" gradientTransform="translate(78 77.9999) rotate(45) scale(294.156)">
<stop stop-color="white"/>
<stop offset="0.375691" stop-color="white" stop-opacity="0.502762"/>
<stop offset="1" stop-color="white" stop-opacity="0"/>
</radialGradient>
<clipPath id="clip0">
<rect width="364" height="364" fill="white"/>
</clipPath>
<clipPath id="clip1">
<rect width="432" height="432" fill="white" transform="translate(-34 -34)"/>
</clipPath>
<clipPath id="clip2">
<rect width="432" height="432" fill="white" transform="translate(-34 -34)"/>
</clipPath>
</defs>
</svg>
