<svg width="322" height="322" viewBox="0 0 322 322" fill="none" xmlns="http://www.w3.org/2000/svg">
<g id="ic_launcher_circle" clip-path="url(#clip0)">
<g id="Circle Preview">
<g id="Clipped Preview Icon" filter="url(#filter0_dd)">
<mask id="mask0" mask-type="alpha" maskUnits="userSpaceOnUse" x="17" y="17" width="288" height="288">
<circle id="Circle" cx="161" cy="161" r="144" fill="#FF9800"/>
</mask>
<g mask="url(#mask0)">
<g id="Combined Foreground/Background" filter="url(#filter1_d)">
<g id="Composite">
<g id="ic_launcher_background" clip-path="url(#clip1)">
<rect id="background" x="-55" y="-55" width="432" height="432" fill="#FFAB00"/>
<g id="Group 14">
<g id="Group 15">
<g id="Mask Group">
<mask id="mask1" mask-type="alpha" maskUnits="userSpaceOnUse" x="-84" y="-80" width="306" height="306">
<circle id="Ellipse 6" cx="69" cy="73" r="153" fill="#090809"/>
</mask>
<g mask="url(#mask1)">
<path id="Exclude" fill-rule="evenodd" clip-rule="evenodd" d="M265.314 90.2139C266.178 94.3297 266.627 98.5496 266.627 102.849C266.627 147.115 219.029 183 160.314 183C101.598 183 54 147.115 54 102.849C54 74.6354 73.3352 49.8268 102.561 35.5436C91.1822 47.4121 84.4432 62.1484 84.4432 78.1135C84.4432 117.388 125.226 149.227 175.535 149.227C220.56 149.227 257.955 123.725 265.314 90.2139Z" fill="#090809"/>
</g>
</g>
<g id="Mask Group_2">
<mask id="mask2" mask-type="alpha" maskUnits="userSpaceOnUse" x="112" y="-72" width="306" height="306">
<circle id="Ellipse 7" cx="265" cy="81" r="153" fill="#090809"/>
</mask>
<g mask="url(#mask2)">
<path id="Exclude_2" fill-rule="evenodd" clip-rule="evenodd" d="M55.3134 90.2139C54.4489 94.3297 54 98.5496 54 102.849C54 147.115 101.598 183 160.313 183C219.029 183 266.627 147.115 266.627 102.849C266.627 74.6354 247.292 49.8268 218.066 35.5436C229.445 47.4121 236.184 62.1484 236.184 78.1135C236.184 117.388 195.401 149.227 145.092 149.227C100.067 149.227 62.6717 123.725 55.3134 90.2139Z" fill="#090809"/>
</g>
</g>
</g>
<g id="Group 16">
<circle id="Ellipse 5" cx="167" cy="241" r="153" fill="#D50000"/>
<path id="Vector 1" d="M142 175.001C115.68 152.387 91.0118 152.282 81 153.329C91.2183 176.571 97.4112 182.853 107.629 181.91C116.886 181.057 130.234 178.141 142 175.001Z" fill="white"/>
<path id="Vector 3" d="M191 175.001C217.32 152.387 241.988 152.282 252 153.329C241.782 176.571 235.589 182.853 225.371 181.91C216.114 181.057 202.766 178.141 191 175.001Z" fill="white"/>
</g>
</g>
</g>
<g id="ic_launcher_foreground" clip-path="url(#clip2)">
<g id="Plate" filter="url(#filter2_dddii)">
<g id="Group 17">
<rect id="Rectangle 12" x="-135.997" y="193.991" width="594.096" height="222.248" fill="#FF101F"/>
<g id="Group 18">
<g id="Evil Insult">
<path d="M98.7753 230.741L98.7753 210L111.325 210L111.325 213.036L102.217 213.036L102.217 218.507L110.435 218.507L110.435 221.513L102.217 221.513L102.217 227.735L111.325 227.735L111.325 230.741L98.7753 230.741Z" fill="white"/>
<path d="M119.816 226.442L123.644 215.711L127.174 215.711L121.389 230.741L118.363 230.741L112.458 215.711L115.959 215.711L119.816 226.442Z" fill="white"/>
<path d="M132.601 230.741L129.426 230.741L129.426 215.711L132.601 215.711L132.601 230.741ZM132.749 213.276L129.278 213.276L129.278 210L132.749 210L132.749 213.276Z" fill="white"/>
<path d="M136.427 226.021L136.427 210L139.602 210L139.602 225.27C139.602 226.212 139.76 226.893 140.076 227.314C140.393 227.715 140.986 227.915 141.856 227.915L141.856 230.741C139.898 230.741 138.504 230.39 137.673 229.689C136.843 228.967 136.427 227.745 136.427 226.021Z" fill="white"/>
<path d="M153.078 210L156.519 210L156.519 230.741L153.078 230.741L153.078 210Z" fill="white"/>
<path d="M163.91 230.741L160.736 230.741L160.736 215.711L163.851 215.711L163.851 217.064C164.642 215.982 165.868 215.441 167.53 215.441C169.231 215.441 170.556 215.932 171.505 216.914C172.455 217.875 172.929 219.348 172.929 221.332L172.929 230.741L169.784 230.741L169.784 221.693C169.784 219.429 168.845 218.296 166.966 218.296C166.017 218.296 165.265 218.607 164.711 219.228C164.177 219.829 163.91 220.641 163.91 221.663L163.91 230.741Z" fill="white"/>
<path d="M186.914 217.936L184.57 219.649C184.194 219.148 183.769 218.797 183.295 218.597C182.82 218.396 182.167 218.296 181.336 218.296C179.794 218.296 179.022 218.807 179.022 219.829C179.022 220.39 179.24 220.811 179.675 221.092C180.13 221.372 180.852 221.573 181.841 221.693C183.66 221.893 185.015 222.374 185.905 223.136C186.815 223.877 187.27 224.979 187.27 226.442C187.27 227.885 186.776 229.007 185.787 229.809C184.818 230.61 183.413 231.011 181.574 231.011C178.824 231.011 176.837 230.18 175.61 228.516L178.014 226.773C178.706 227.715 179.883 228.186 181.544 228.186C182.355 228.186 182.988 228.045 183.443 227.765C183.898 227.464 184.125 227.053 184.125 226.532C184.125 225.951 183.908 225.53 183.473 225.27C183.057 225.009 182.246 224.799 181.04 224.639C177.578 224.198 175.848 222.625 175.848 219.919C175.848 218.537 176.332 217.445 177.302 216.643C178.271 215.841 179.635 215.441 181.396 215.441C184.026 215.441 185.866 216.272 186.914 217.936Z" fill="white"/>
<path d="M199.192 215.711L202.337 215.711L202.337 230.741L199.222 230.741L199.222 229.388C198.846 229.969 198.381 230.39 197.827 230.651C197.293 230.891 196.542 231.011 195.573 231.011C193.872 231.011 192.537 230.52 191.567 229.538C190.618 228.556 190.143 227.074 190.143 225.09L190.143 215.711L193.318 215.711L193.318 224.759C193.318 225.981 193.555 226.863 194.03 227.404C194.505 227.925 195.217 228.186 196.166 228.186C197.135 228.186 197.877 227.885 198.391 227.284C198.925 226.683 199.192 225.851 199.192 224.789L199.192 215.711Z" fill="white"/>
<path d="M205.76 226.021L205.76 210L208.934 210L208.934 225.27C208.934 226.212 209.093 226.893 209.409 227.314C209.726 227.715 210.319 227.915 211.189 227.915L211.189 230.741C209.231 230.741 207.837 230.39 207.006 229.689C206.175 228.967 205.76 227.745 205.76 226.021Z" fill="white"/>
<path d="M214.845 218.477L212.946 218.477L212.946 215.711L214.845 215.711L214.845 212.405L217.99 212.405L217.99 215.711L221.135 215.711L221.135 218.477L217.99 218.477L217.99 225.36C217.99 226.302 218.119 226.953 218.376 227.314C218.633 227.675 219.147 227.855 219.918 227.855L221.135 227.855L221.135 230.741L219.681 230.741C217.901 230.741 216.645 230.39 215.913 229.689C215.201 228.967 214.845 227.725 214.845 225.961L214.845 218.477Z" fill="white"/>
</g>
<g id="Generator">
<path d="M89.3303 257.652L90.2261 253.018L100.002 253.018L99.535 255.492C98.73 259.682 97.3538 262.732 95.4064 264.644C93.4849 266.529 90.7974 267.472 87.3439 267.472C84.2539 267.472 81.9689 266.425 80.4888 264.33C79.0087 262.235 78.6322 259.289 79.3592 255.492L80.0214 252.036C80.8523 247.767 82.3064 244.638 84.3837 242.648C86.461 240.658 89.2264 239.663 92.6799 239.663C95.3544 239.663 97.3928 240.462 98.7949 242.059C100.223 243.63 100.911 245.751 100.859 248.422L95.6401 248.422C95.6401 245.673 94.3547 244.298 91.7841 244.298C88.5643 244.298 86.487 246.746 85.5522 251.643L84.8121 255.492C83.8514 260.389 84.9939 262.837 88.2397 262.837C89.6938 262.837 90.8623 262.418 91.7451 261.58C92.6539 260.716 93.355 259.407 93.8484 257.652L89.3303 257.652Z" fill="white"/>
<path d="M113.569 261.541L116.879 264.212C115.191 266.385 112.582 267.472 109.05 267.472C106.376 267.472 104.416 266.647 103.169 264.997C101.923 263.295 101.546 261.161 102.04 258.595L102.585 255.924C103.156 252.939 104.234 250.726 105.818 249.286C107.402 247.82 109.557 247.1 112.283 247.126C114.88 247.152 116.698 247.977 117.736 249.6C118.801 251.224 119.06 253.463 118.515 256.317L118.087 258.556L106.986 258.556C106.441 261.672 107.363 263.23 109.752 263.23C111.335 263.23 112.608 262.667 113.569 261.541ZM111.504 251.368C109.635 251.368 108.362 252.572 107.687 254.981L113.802 254.981C114.166 252.572 113.4 251.368 111.504 251.368Z" fill="white"/>
<path d="M125.032 267.118L120.047 267.118L123.825 247.479L128.694 247.479L128.421 248.854C129.641 247.702 131.251 247.126 133.251 247.126C135.432 247.126 137.042 247.78 138.08 249.09C139.145 250.373 139.418 252.297 138.898 254.864L136.523 267.118L131.576 267.118L133.757 255.767C134.043 254.222 133.991 253.122 133.601 252.468C133.238 251.787 132.511 251.446 131.42 251.446C130.33 251.446 129.421 251.826 128.694 252.586C127.967 253.345 127.473 254.392 127.214 255.728L125.032 267.118Z" fill="white"/>
<path d="M153.012 261.541L156.323 264.212C154.635 266.385 152.026 267.472 148.494 267.472C145.82 267.472 143.859 266.647 142.613 264.997C141.367 263.295 140.99 261.161 141.483 258.595L142.029 255.924C142.6 252.939 143.678 250.726 145.261 249.286C146.845 247.82 149.001 247.1 151.727 247.126C154.324 247.152 156.141 247.977 157.18 249.6C158.245 251.224 158.504 253.463 157.959 256.317L157.53 258.556L146.43 258.556C145.885 261.672 146.806 263.23 149.195 263.23C150.779 263.23 152.052 262.667 153.012 261.541ZM150.948 251.368C149.078 251.368 147.806 252.572 147.131 254.981L153.246 254.981C153.61 252.572 152.844 251.368 150.948 251.368Z" fill="white"/>
<path d="M177.018 250.268L172.772 252.939C172.305 251.944 171.591 251.446 170.63 251.446C169.669 251.446 168.839 251.813 168.137 252.546C167.436 253.253 166.956 254.261 166.696 255.571L164.476 267.118L159.491 267.118L163.269 247.479L168.137 247.479L167.865 248.854C169.007 247.702 170.5 247.126 172.344 247.126C174.629 247.126 176.187 248.173 177.018 250.268Z" fill="white"/>
<path d="M175.2 262.287C175.2 260.035 175.953 258.32 177.459 257.142C178.965 255.937 181.042 255.335 183.691 255.335L187.547 255.335L187.78 254.196C187.988 253.07 187.897 252.311 187.508 251.918C187.118 251.499 186.235 251.289 184.859 251.289C183.898 251.289 183.145 251.407 182.6 251.643C182.055 251.852 181.523 252.284 181.003 252.939L177.809 250.347C178.796 249.064 179.9 248.213 181.12 247.794C182.392 247.348 184.067 247.126 186.145 247.126C188.767 247.126 190.624 247.702 191.714 248.854C192.805 249.98 193.116 251.774 192.649 254.235L190.156 267.118L185.288 267.118L185.599 265.587C184.561 266.844 183.029 267.472 181.003 267.472C179.289 267.472 177.887 267.001 176.797 266.058C175.732 265.115 175.2 263.858 175.2 262.287ZM186.69 259.773L186.846 259.027L183.574 259.027C181.315 259.027 180.185 259.891 180.185 261.619C180.185 262.824 181.003 263.426 182.639 263.426C183.808 263.426 184.703 263.151 185.327 262.601C185.976 262.025 186.43 261.083 186.69 259.773Z" fill="white"/>
<path d="M198.193 251.721L195.7 251.721L196.518 247.479L199.011 247.479L199.828 243.159L204.775 243.159L203.957 247.479L207.774 247.479L206.956 251.721L203.139 251.721L201.542 259.931C201.335 260.978 201.347 261.711 201.581 262.13C201.815 262.523 202.36 262.719 203.217 262.719L204.814 262.719L203.957 267.118L201.854 267.118C199.595 267.118 198.011 266.634 197.102 265.665C196.219 264.67 195.998 263.02 196.44 260.716L198.193 251.721Z" fill="white"/>
<path d="M225.303 256.081L224.836 258.438C224.239 261.475 223.122 263.741 221.486 265.233C219.877 266.726 217.669 267.472 214.865 267.472C212.191 267.472 210.243 266.66 209.023 265.037C207.802 263.413 207.465 261.214 208.01 258.438L208.477 256.081C209.075 253.07 210.191 250.831 211.827 249.365C213.489 247.872 215.735 247.126 218.565 247.126C221.24 247.126 223.161 247.924 224.33 249.522C225.524 251.119 225.849 253.306 225.303 256.081ZM215.488 263.23C217.825 263.23 219.305 261.58 219.928 258.281L220.318 256.238C220.889 252.991 220.045 251.368 217.786 251.368C215.423 251.368 213.956 252.991 213.385 256.238L212.995 258.281C212.658 259.931 212.671 261.174 213.034 262.012C213.424 262.824 214.242 263.23 215.488 263.23Z" fill="white"/>
<path d="M244 250.268L239.755 252.939C239.287 251.944 238.573 251.446 237.612 251.446C236.652 251.446 235.821 251.813 235.12 252.546C234.418 253.253 233.938 254.261 233.678 255.571L231.458 267.118L226.473 267.118L230.251 247.479L235.12 247.479L234.847 248.854C235.989 247.702 237.482 247.126 239.326 247.126C241.611 247.126 243.169 248.173 244 250.268Z" fill="white"/>
</g>
</g>
</g>
</g>
<rect id="Finish Layer" x="-55" y="-55" width="432" height="432" fill="url(#paint0_radial)" fill-opacity="0.1"/>
</g>
</g>
</g>
</g>
</g>
</g>
</g>
<defs>
<filter id="filter0_dd" x="13" y="17" width="296" height="300" filterUnits="userSpaceOnUse" color-interpolation-filters="sRGB">
<feFlood flood-opacity="0" result="BackgroundImageFix"/>
<feColorMatrix in="SourceAlpha" type="matrix" values="0 0 0 0 0 0 0 0 0 0 0 0 0 0 0 0 0 0 127 0"/>
<feOffset dy="4"/>
<feGaussianBlur stdDeviation="2"/>
<feColorMatrix type="matrix" values="0 0 0 0 0 0 0 0 0 0 0 0 0 0 0 0 0 0 0.12 0"/>
<feBlend mode="normal" in2="BackgroundImageFix" result="effect1_dropShadow"/>
<feColorMatrix in="SourceAlpha" type="matrix" values="0 0 0 0 0 0 0 0 0 0 0 0 0 0 0 0 0 0 127 0"/>
<feOffset dy="8"/>
<feGaussianBlur stdDeviation="2"/>
<feColorMatrix type="matrix" values="0 0 0 0 0 0 0 0 0 0 0 0 0 0 0 0 0 0 0.12 0"/>
<feBlend mode="normal" in2="effect1_dropShadow" result="effect2_dropShadow"/>
<feBlend mode="normal" in="SourceGraphic" in2="effect2_dropShadow" result="shape"/>
</filter>
<filter id="filter1_d" x="-61" y="-58" width="444" height="444" filterUnits="userSpaceOnUse" color-interpolation-filters="sRGB">
<feFlood flood-opacity="0" result="BackgroundImageFix"/>
<feColorMatrix in="SourceAlpha" type="matrix" values="0 0 0 0 0 0 0 0 0 0 0 0 0 0 0 0 0 0 127 0"/>
<feOffset dy="3"/>
<feGaussianBlur stdDeviation="3"/>
<feColorMatrix type="matrix" values="0 0 0 0 0 0 0 0 0 0 0 0 0 0 0 0 0 0 0.24 0"/>
<feBlend mode="normal" in2="BackgroundImageFix" result="effect1_dropShadow"/>
<feBlend mode="normal" in="SourceGraphic" in2="effect1_dropShadow" result="shape"/>
</filter>
<filter id="filter2_dddii" x="-147.997" y="181.991" width="618.096" height="256.248" filterUnits="userSpaceOnUse" color-interpolation-filters="sRGB">
<feFlood flood-opacity="0" result="BackgroundImageFix"/>
<feColorMatrix in="SourceAlpha" type="matrix" values="0 0 0 0 0 0 0 0 0 0 0 0 0 0 0 0 0 0 127 0"/>
<feOffset/>
<feGaussianBlur stdDeviation="6"/>
<feColorMatrix type="matrix" values="0 0 0 0 0.195833 0 0 0 0 0.122849 0 0 0 0 0.110156 0 0 0 0.24 0"/>
<feBlend mode="normal" in2="BackgroundImageFix" result="effect1_dropShadow"/>
<feColorMatrix in="SourceAlpha" type="matrix" values="0 0 0 0 0 0 0 0 0 0 0 0 0 0 0 0 0 0 127 0"/>
<feOffset dy="4"/>
<feColorMatrix type="matrix" values="0 0 0 0 0.196078 0 0 0 0 0.121569 0 0 0 0 0.109804 0 0 0 0.24 0"/>
<feBlend mode="normal" in2="effect1_dropShadow" result="effect2_dropShadow"/>
<feColorMatrix in="SourceAlpha" type="matrix" values="0 0 0 0 0 0 0 0 0 0 0 0 0 0 0 0 0 0 127 0"/>
<feOffset dy="10"/>
<feGaussianBlur stdDeviation="6"/>
<feColorMatrix type="matrix" values="0 0 0 0 0.196078 0 0 0 0 0.121569 0 0 0 0 0.109804 0 0 0 0.36 0"/>
<feBlend mode="normal" in2="effect2_dropShadow" result="effect3_dropShadow"/>
<feBlend mode="normal" in="SourceGraphic" in2="effect3_dropShadow" result="shape"/>
<feColorMatrix in="SourceAlpha" type="matrix" values="0 0 0 0 0 0 0 0 0 0 0 0 0 0 0 0 0 0 127 0" result="hardAlpha"/>
<feOffset dy="3"/>
<feComposite in2="hardAlpha" operator="arithmetic" k2="-1" k3="1"/>
<feColorMatrix type="matrix" values="0 0 0 0 1 0 0 0 0 1 0 0 0 0 1 0 0 0 0.6 0"/>
<feBlend mode="normal" in2="shape" result="effect4_innerShadow"/>
<feColorMatrix in="SourceAlpha" type="matrix" values="0 0 0 0 0 0 0 0 0 0 0 0 0 0 0 0 0 0 127 0" result="hardAlpha"/>
<feOffset dy="-3"/>
<feComposite in2="hardAlpha" operator="arithmetic" k2="-1" k3="1"/>
<feColorMatrix type="matrix" values="0 0 0 0 0.0862745 0 0 0 0 0.0862745 0 0 0 0 0.0862745 0 0 0 0.2 0"/>
<feBlend mode="normal" in2="effect4_innerShadow" result="effect5_innerShadow"/>
</filter>
<radialGradient id="paint0_radial" cx="0" cy="0" r="1" gradientUnits="userSpaceOnUse" gradientTransform="translate(57 56.9999) rotate(45) scale(294.156)">
<stop stop-color="white"/>
<stop offset="0.375691" stop-color="white" stop-opacity="0.502762"/>
<stop offset="1" stop-color="white" stop-opacity="0"/>
</radialGradient>
<clipPath id="clip0">
<rect width="322" height="322" fill="white"/>
</clipPath>
<clipPath id="clip1">
<rect width="432" height="432" fill="white" transform="translate(-55 -55)"/>
</clipPath>
<clipPath id="clip2">
<rect width="432" height="432" fill="white" transform="translate(-55 -55)"/>
</clipPath>
</defs>
</svg>
