<svg width="432" height="432" viewBox="0 0 432 432" fill="none" xmlns="http://www.w3.org/2000/svg">
<g id="ic_launcher_foreground" clip-path="url(#clip0)">
<g id="Plate" filter="url(#filter0_dddii)">
<g id="Group 17">
<rect id="Rectangle 12" x="-80.9969" y="271.991" width="594.096" height="222.248" fill="#090809"/>
<g id="&#38;$!#%">
<path d="M150.196 320.338C150.196 316.362 152.344 312.758 156.64 309.527C154.119 306.473 152.859 303.739 152.859 301.325C152.859 298.875 153.693 296.886 155.362 295.36C157.031 293.833 159.197 293.069 161.86 293.069C164.771 293.069 166.973 293.744 168.464 295.093C169.991 296.443 170.754 298.165 170.754 300.259C170.754 302.248 169.884 304.041 168.144 305.639C167.292 306.42 166.511 307.112 165.801 307.716C165.339 308.106 164.327 308.816 162.765 309.846L172.405 320.338C173.541 318.172 174.109 315.758 174.109 313.095L178.264 313.095C178.264 317.036 177.287 320.516 175.334 323.534L181.512 330.244L175.494 330.244L172.458 326.942C169.653 329.428 166.103 330.671 161.806 330.671C158.114 330.671 155.256 329.659 153.232 327.635C151.208 325.611 150.196 323.179 150.196 320.338ZM161.806 326.516C164.931 326.516 167.541 325.629 169.636 323.853L159.25 312.403C156.125 314.888 154.563 317.515 154.563 320.285C154.563 322.202 155.22 323.729 156.534 324.865C157.883 325.966 159.641 326.516 161.806 326.516ZM157.439 301.325C157.439 302.993 158.362 304.911 160.209 307.077C160.351 306.97 161.38 306.26 163.298 304.946C164.043 304.378 164.7 303.686 165.268 302.869C165.872 302.053 166.174 301.289 166.174 300.579C166.174 299.656 165.783 298.857 165.002 298.182C164.221 297.508 163.173 297.17 161.86 297.17C160.546 297.17 159.481 297.561 158.664 298.342C157.848 299.088 157.439 300.082 157.439 301.325Z" fill="white"/>
<path d="M198.093 297.437L198.093 309.953C201.715 310.627 204.378 311.781 206.082 313.415C207.786 315.012 208.638 317.32 208.638 320.338C208.638 322.93 207.769 325.203 206.029 327.155C204.289 329.179 201.644 330.315 198.093 330.564L198.093 336.423L194.152 336.423L194.152 330.564C189.288 330.138 185.63 328.132 183.181 324.546L186.962 321.936C188.134 323.321 189.252 324.368 190.317 325.078C191.382 325.753 192.661 326.197 194.152 326.41L194.152 313.521C187.37 312.172 183.979 308.674 183.979 303.029C183.979 300.295 184.849 298.04 186.589 296.265C188.329 294.49 190.85 293.46 194.152 293.176L194.152 286.998L198.093 286.998L198.093 293.176C202.425 293.673 205.727 295.679 207.999 299.194L204.431 301.751C202.585 299.265 200.472 297.827 198.093 297.437ZM198.093 314.267L198.093 326.41C202.07 325.948 204.058 323.995 204.058 320.551C204.058 318.918 203.597 317.604 202.673 316.61C201.786 315.58 200.259 314.799 198.093 314.267ZM194.152 309.101L194.152 297.33C192.412 297.543 191.045 298.147 190.051 299.141C189.057 300.135 188.56 301.431 188.56 303.029C188.56 304.662 189.004 305.958 189.891 306.917C190.779 307.84 192.199 308.568 194.152 309.101Z" fill="white"/>
<path d="M212.686 293.496L217.266 293.496L217.266 320.178L212.686 320.178L212.686 293.496ZM217.533 330.244L212.42 330.244L212.42 325.132L217.533 325.132L217.533 330.244Z" fill="white"/>
<path d="M221.677 308.089L221.677 303.934L228.601 303.934L230.572 293.496L235.205 293.496L233.235 303.934L241.224 303.934L243.194 293.496L247.881 293.496L245.91 303.934L251.662 303.934L251.662 308.089L245.111 308.089L243.833 315.119L249.692 315.119L249.692 319.273L243.034 319.273L241.01 330.244L236.377 330.244L238.401 319.273L230.412 319.273L228.388 330.244L223.701 330.244L225.725 319.273L219.707 319.273L219.707 315.119L226.524 315.119L227.802 308.089L221.677 308.089ZM240.478 308.089L232.489 308.089L231.158 315.119L239.146 315.119L240.478 308.089Z" fill="white"/>
<path d="M259.623 330.244L280.181 293.496L284.602 293.496L264.097 330.244L259.623 330.244ZM290.513 320.019L290.513 322.309C290.513 324.901 289.856 326.942 288.543 328.434C287.229 329.925 285.312 330.671 282.791 330.671C280.376 330.671 278.494 329.925 277.145 328.434C275.832 326.942 275.175 324.901 275.175 322.309L275.175 320.019C275.175 317.427 275.849 315.403 277.198 313.947C278.548 312.491 280.412 311.763 282.791 311.763C285.241 311.763 287.14 312.491 288.489 313.947C289.839 315.367 290.513 317.391 290.513 320.019ZM282.791 327.475C284.211 327.475 285.294 327.013 286.04 326.09C286.785 325.167 287.158 323.889 287.158 322.256L287.158 320.125C287.158 316.717 285.702 315.012 282.791 315.012C281.441 315.012 280.394 315.456 279.648 316.344C278.938 317.231 278.583 318.492 278.583 320.125L278.583 322.256C278.583 325.735 279.986 327.475 282.791 327.475ZM269.636 301.325L269.636 303.615C269.636 306.207 268.979 308.248 267.665 309.74C266.351 311.231 264.434 311.977 261.913 311.977C259.499 311.977 257.617 311.231 256.268 309.74C254.954 308.248 254.297 306.207 254.297 303.615L254.297 301.325C254.297 298.733 254.972 296.709 256.321 295.253C257.67 293.797 259.534 293.069 261.913 293.069C264.363 293.069 266.263 293.797 267.612 295.253C268.961 296.673 269.636 298.697 269.636 301.325ZM261.913 308.781C263.333 308.781 264.416 308.319 265.162 307.396C265.908 306.473 266.28 305.195 266.28 303.562L266.28 301.431C266.28 298.023 264.825 296.318 261.913 296.318C260.564 296.318 259.516 296.762 258.771 297.65C258.061 298.537 257.706 299.798 257.706 301.431L257.706 303.562C257.706 307.041 259.108 308.781 261.913 308.781Z" fill="white"/>
</g>
</g>
</g>
<rect id="Finish Layer" width="432" height="432" fill="url(#paint0_radial)" fill-opacity="0.1"/>
</g>
<defs>
<filter id="filter0_dddii" x="-92.9969" y="249" width="618.096" height="267.239" filterUnits="userSpaceOnUse" color-interpolation-filters="sRGB">
<feFlood flood-opacity="0" result="BackgroundImageFix"/>
<feColorMatrix in="SourceAlpha" type="matrix" values="0 0 0 0 0 0 0 0 0 0 0 0 0 0 0 0 0 0 127 0"/>
<feOffset/>
<feGaussianBlur stdDeviation="6"/>
<feColorMatrix type="matrix" values="0 0 0 0 0.195833 0 0 0 0 0.122849 0 0 0 0 0.110156 0 0 0 0.24 0"/>
<feBlend mode="normal" in2="BackgroundImageFix" result="effect1_dropShadow"/>
<feColorMatrix in="SourceAlpha" type="matrix" values="0 0 0 0 0 0 0 0 0 0 0 0 0 0 0 0 0 0 127 0"/>
<feOffset dy="4"/>
<feColorMatrix type="matrix" values="0 0 0 0 0.196078 0 0 0 0 0.121569 0 0 0 0 0.109804 0 0 0 0.24 0"/>
<feBlend mode="normal" in2="effect1_dropShadow" result="effect2_dropShadow"/>
<feColorMatrix in="SourceAlpha" type="matrix" values="0 0 0 0 0 0 0 0 0 0 0 0 0 0 0 0 0 0 127 0"/>
<feOffset dy="10"/>
<feGaussianBlur stdDeviation="6"/>
<feColorMatrix type="matrix" values="0 0 0 0 0.196078 0 0 0 0 0.121569 0 0 0 0 0.109804 0 0 0 0.36 0"/>
<feBlend mode="normal" in2="effect2_dropShadow" result="effect3_dropShadow"/>
<feBlend mode="normal" in="SourceGraphic" in2="effect3_dropShadow" result="shape"/>
<feColorMatrix in="SourceAlpha" type="matrix" values="0 0 0 0 0 0 0 0 0 0 0 0 0 0 0 0 0 0 127 0" result="hardAlpha"/>
<feOffset dy="3"/>
<feComposite in2="hardAlpha" operator="arithmetic" k2="-1" k3="1"/>
<feColorMatrix type="matrix" values="0 0 0 0 1 0 0 0 0 1 0 0 0 0 1 0 0 0 0.6 0"/>
<feBlend mode="normal" in2="shape" result="effect4_innerShadow"/>
<feColorMatrix in="SourceAlpha" type="matrix" values="0 0 0 0 0 0 0 0 0 0 0 0 0 0 0 0 0 0 127 0" result="hardAlpha"/>
<feOffset dy="-3"/>
<feComposite in2="hardAlpha" operator="arithmetic" k2="-1" k3="1"/>
<feColorMatrix type="matrix" values="0 0 0 0 0.0862745 0 0 0 0 0.0862745 0 0 0 0 0.0862745 0 0 0 0.2 0"/>
<feBlend mode="normal" in2="effect4_innerShadow" result="effect5_innerShadow"/>
</filter>
<radialGradient id="paint0_radial" cx="0" cy="0" r="1" gradientUnits="userSpaceOnUse" gradientTransform="translate(112 112) rotate(45) scale(294.156)">
<stop stop-color="white"/>
<stop offset="0.375691" stop-color="white" stop-opacity="0.502762"/>
<stop offset="1" stop-color="white" stop-opacity="0"/>
</radialGradient>
<clipPath id="clip0">
<rect width="432" height="432" fill="white"/>
</clipPath>
</defs>
</svg>
