<svg width="364" height="364" viewBox="0 0 364 364" fill="none" xmlns="http://www.w3.org/2000/svg">
<g id="ic_launcher_squircle" clip-path="url(#clip0)">
<g id="Squircle Preview">
<g id="Clipped Preview Icon" filter="url(#filter0_dd)">
<mask id="mask0" mask-type="alpha" maskUnits="userSpaceOnUse" x="38" y="38" width="288" height="288">
<path id="Squircle" d="M285 58C258 40.7371 218 38 182 38C146 38 106 40.7371 79 58C70.3643 63.5214 63.5214 70.3643 58 79C40.7371 106 38 146 38 182C38 218 40.7371 258 58 285C63.5214 293.636 70.3643 300.479 79 306C106 323.263 146 326 182 326C218 326 258 323.263 285 306C293.636 300.479 300.479 293.636 306 285C323.263 258 326 218 326 182C326 146 323.263 106 306 79C300.479 70.3643 293.636 63.5214 285 58Z" fill="#FF9800"/>
</mask>
<g mask="url(#mask0)">
<g id="Combined Foreground/Background">
<g id="Composite">
<g id="ic_launcher_background" clip-path="url(#clip1)">
<rect id="background" x="-34" y="-34" width="432" height="432" fill="#FFAB00"/>
<g id="Group 18">
<g id="Evil Insult">
<path d="M86 125.562V92H106.308V96.9127H91.569V105.765H104.868V110.629H91.569V120.698H106.308V125.562H86Z" fill="#C22700"/>
<path d="M120.048 118.607L126.241 101.242H131.954L122.593 125.562H117.696L108.142 101.242H113.807L120.048 118.607Z" fill="#C22700"/>
<path d="M140.736 125.562H135.599V101.242H140.736V125.562ZM140.976 97.3019H135.359V92H140.976V97.3019Z" fill="#C22700"/>
<path d="M146.928 117.926V92H152.065V116.71C152.065 118.234 152.321 119.336 152.833 120.017C153.345 120.666 154.305 120.99 155.713 120.99V125.562C152.545 125.562 150.288 124.995 148.944 123.86C147.6 122.692 146.928 120.714 146.928 117.926Z" fill="#C22700"/>
<path d="M173.871 92H179.441V125.562H173.871V92Z" fill="#C22700"/>
<path d="M191.4 125.562H186.263V101.242H191.304V103.431C192.584 101.68 194.569 100.804 197.257 100.804C200.01 100.804 202.154 101.598 203.69 103.187C205.227 104.744 205.995 107.127 205.995 110.338V125.562H200.906V110.921C200.906 107.257 199.386 105.425 196.345 105.425C194.809 105.425 193.592 105.928 192.696 106.933C191.832 107.906 191.4 109.219 191.4 110.873V125.562Z" fill="#C22700"/>
<path d="M228.625 104.841L224.832 107.614C224.224 106.803 223.536 106.236 222.768 105.911C221.999 105.587 220.943 105.425 219.599 105.425C217.102 105.425 215.854 106.252 215.854 107.906C215.854 108.814 216.206 109.495 216.91 109.948C217.647 110.402 218.815 110.727 220.415 110.921C223.36 111.246 225.552 112.024 226.992 113.256C228.465 114.456 229.201 116.239 229.201 118.607C229.201 120.941 228.401 122.757 226.8 124.054C225.232 125.351 222.96 126 219.983 126C215.534 126 212.318 124.654 210.333 121.963L214.222 119.142C215.342 120.666 217.246 121.428 219.935 121.428C221.247 121.428 222.271 121.201 223.008 120.747C223.744 120.26 224.112 119.596 224.112 118.753C224.112 117.812 223.76 117.131 223.056 116.71C222.383 116.288 221.071 115.948 219.119 115.688C213.518 114.975 210.717 112.429 210.717 108.052C210.717 105.814 211.501 104.047 213.07 102.75C214.638 101.453 216.846 100.804 219.695 100.804C223.952 100.804 226.928 102.15 228.625 104.841Z" fill="#C22700"/>
<path d="M248.493 101.242H253.582V125.562H248.541V123.373C247.933 124.314 247.181 124.995 246.284 125.416C245.42 125.805 244.204 126 242.636 126C239.883 126 237.723 125.206 236.155 123.617C234.618 122.028 233.85 119.628 233.85 116.418V101.242H238.987V115.883C238.987 117.861 239.371 119.288 240.139 120.163C240.907 121.006 242.06 121.428 243.596 121.428C245.164 121.428 246.364 120.941 247.197 119.969C248.061 118.996 248.493 117.65 248.493 115.931V101.242Z" fill="#C22700"/>
<path d="M259.12 117.926V92H264.257V116.71C264.257 118.234 264.513 119.336 265.026 120.017C265.538 120.666 266.498 120.99 267.906 120.99V125.562C264.738 125.562 262.481 124.995 261.137 123.86C259.793 122.692 259.12 120.714 259.12 117.926Z" fill="#C22700"/>
<path d="M273.822 105.717H270.75V101.242H273.822V95.8913H278.911V101.242H284V105.717H278.911V116.856C278.911 118.38 279.119 119.433 279.535 120.017C279.951 120.601 280.783 120.893 282.032 120.893H284V125.562H281.648C278.767 125.562 276.735 124.995 275.55 123.86C274.398 122.692 273.822 120.682 273.822 117.828V105.717Z" fill="#C22700"/>
</g>
<g id="Generator">
<path d="M70.7163 169.11L72.1659 161.61H87.9857L87.2293 165.614C85.9268 172.394 83.6998 177.331 80.5485 180.424C77.4391 183.475 73.0903 185 67.5019 185C62.5017 185 58.8041 183.305 56.4091 179.915C54.0141 176.525 53.4048 171.758 54.5813 165.614L55.6528 160.021C56.9974 153.114 59.3504 148.051 62.7118 144.831C66.0733 141.61 70.5482 140 76.1366 140C80.4644 140 83.7628 141.292 86.0318 143.877C88.3428 146.419 89.4563 149.852 89.3722 154.174H80.9266C80.9266 149.725 78.8467 147.5 74.687 147.5C69.4767 147.5 66.1153 151.462 64.6026 159.386L63.4051 165.614C61.8504 173.538 63.6992 177.5 68.9515 177.5C71.3045 177.5 73.1953 176.822 74.6239 175.466C76.0946 174.068 77.229 171.949 78.0274 169.11H70.7163Z" fill="#C22700"/>
<path d="M109.938 175.403L115.296 179.725C112.564 183.242 108.342 185 102.627 185C98.2993 185 95.1269 183.665 93.11 180.996C91.0932 178.242 90.4839 174.788 91.2823 170.636L92.1646 166.314C93.089 161.483 94.8328 157.903 97.3959 155.572C99.959 153.199 103.446 152.034 107.858 152.076C112.06 152.119 115.001 153.453 116.682 156.081C118.405 158.708 118.825 162.331 117.943 166.949L117.249 170.572H99.2867C98.4043 175.614 99.896 178.136 103.762 178.136C106.325 178.136 108.384 177.225 109.938 175.403ZM106.598 158.941C103.573 158.941 101.514 160.89 100.421 164.788H110.316C110.905 160.89 109.665 158.941 106.598 158.941Z" fill="#C22700"/>
<path d="M128.489 184.428H120.421L126.535 152.648H134.413L133.972 154.873C135.947 153.008 138.552 152.076 141.788 152.076C145.317 152.076 147.922 153.136 149.603 155.254C151.326 157.331 151.767 160.445 150.927 164.597L147.082 184.428H139.077L142.607 166.059C143.069 163.559 142.985 161.78 142.355 160.72C141.767 159.619 140.59 159.068 138.825 159.068C137.061 159.068 135.59 159.682 134.413 160.911C133.237 162.14 132.439 163.835 132.018 165.996L128.489 184.428Z" fill="#C22700"/>
<path d="M173.765 175.403L179.123 179.725C176.392 183.242 172.169 185 166.454 185C162.126 185 158.954 183.665 156.937 180.996C154.92 178.242 154.311 174.788 155.109 170.636L155.992 166.314C156.916 161.483 158.66 157.903 161.223 155.572C163.786 153.199 167.274 152.034 171.686 152.076C175.887 152.119 178.829 153.453 180.509 156.081C182.232 158.708 182.652 162.331 181.77 166.949L181.077 170.572H163.114C162.231 175.614 163.723 178.136 167.589 178.136C170.152 178.136 172.211 177.225 173.765 175.403ZM170.425 158.941C167.4 158.941 165.341 160.89 164.248 164.788H174.144C174.732 160.89 173.492 158.941 170.425 158.941Z" fill="#C22700"/>
<path d="M212.611 157.161L205.741 161.483C204.984 159.873 203.829 159.068 202.274 159.068C200.72 159.068 199.375 159.661 198.241 160.847C197.106 161.992 196.329 163.623 195.909 165.742L192.316 184.428H184.249L190.362 152.648H198.241L197.799 154.873C199.648 153.008 202.064 152.076 205.048 152.076C208.745 152.076 211.266 153.771 212.611 157.161Z" fill="#C22700"/>
<path d="M209.669 176.61C209.669 172.966 210.887 170.191 213.324 168.284C215.761 166.335 219.123 165.36 223.409 165.36H229.648L230.026 163.517C230.363 161.695 230.215 160.466 229.585 159.831C228.955 159.153 227.526 158.814 225.299 158.814C223.745 158.814 222.526 159.004 221.644 159.386C220.761 159.725 219.9 160.424 219.06 161.483L213.891 157.288C215.488 155.212 217.274 153.835 219.249 153.157C221.308 152.436 224.018 152.076 227.379 152.076C231.623 152.076 234.627 153.008 236.392 154.873C238.157 156.695 238.661 159.597 237.905 163.581L233.871 184.428H225.993L226.497 181.949C224.816 183.983 222.337 185 219.06 185C216.287 185 214.018 184.237 212.253 182.712C210.53 181.186 209.669 179.153 209.669 176.61ZM228.262 172.542L228.514 171.335H223.219C219.564 171.335 217.736 172.733 217.736 175.53C217.736 177.479 219.06 178.453 221.707 178.453C223.598 178.453 225.047 178.008 226.056 177.119C227.106 176.186 227.841 174.661 228.262 172.542Z" fill="#C22700"/>
<path d="M246.875 159.513H242.842L244.165 152.648H248.199L249.522 145.657H257.527L256.203 152.648H262.38L261.056 159.513H254.88L252.296 172.797C251.959 174.492 251.98 175.678 252.359 176.356C252.737 176.992 253.619 177.309 255.006 177.309H257.59L256.203 184.428H252.8C249.144 184.428 246.581 183.644 245.111 182.076C243.682 180.466 243.325 177.797 244.039 174.068L246.875 159.513Z" fill="#C22700"/>
<path d="M290.746 166.568L289.989 170.381C289.023 175.297 287.216 178.962 284.569 181.377C281.964 183.792 278.392 185 273.854 185C269.526 185 266.375 183.686 264.4 181.059C262.425 178.432 261.879 174.873 262.762 170.381L263.518 166.568C264.484 161.695 266.291 158.072 268.938 155.699C271.627 153.284 275.262 152.076 279.842 152.076C284.17 152.076 287.279 153.369 289.17 155.953C291.103 158.538 291.628 162.076 290.746 166.568ZM274.863 178.136C278.644 178.136 281.039 175.466 282.048 170.127L282.678 166.822C283.602 161.568 282.237 158.941 278.581 158.941C274.758 158.941 272.384 161.568 271.459 166.822L270.829 170.127C270.283 172.797 270.304 174.809 270.892 176.165C271.522 177.479 272.846 178.136 274.863 178.136Z" fill="#C22700"/>
<path d="M321 157.161L314.13 161.483C313.374 159.873 312.218 159.068 310.664 159.068C309.109 159.068 307.764 159.661 306.63 160.847C305.495 161.992 304.718 163.623 304.298 165.742L300.705 184.428H292.638L298.751 152.648H306.63L306.189 154.873C308.037 153.008 310.453 152.076 313.437 152.076C317.134 152.076 319.655 153.771 321 157.161Z" fill="#C22700"/>
</g>
</g>
</g>
<g id="ic_launcher_foreground" clip-path="url(#clip2)">
<g id="Plate" filter="url(#filter1_dddii)">
<g id="Group 17">
<rect id="Rectangle 12" x="-114.997" y="214.991" width="594.096" height="222.248" fill="#FF101F"/>
<g id="&#38;$!#%">
<path d="M113.869 272.338C113.869 268.362 116.018 264.758 120.314 261.527C117.793 258.473 116.532 255.739 116.532 253.325C116.532 250.875 117.367 248.886 119.036 247.36C120.704 245.833 122.87 245.069 125.533 245.069C128.445 245.069 130.646 245.744 132.137 247.093C133.664 248.443 134.428 250.165 134.427 252.259C134.427 254.248 133.558 256.041 131.818 257.639C130.966 258.42 130.185 259.112 129.474 259.716C129.013 260.106 128.001 260.816 126.439 261.846L136.079 272.338C137.215 270.172 137.783 267.758 137.783 265.095L141.937 265.095C141.937 269.036 140.961 272.516 139.008 275.534L145.186 282.244L139.168 282.244L136.132 278.942C133.327 281.428 129.776 282.671 125.48 282.671C121.787 282.671 118.929 281.659 116.905 279.635C114.881 277.611 113.869 275.179 113.869 272.338ZM125.48 278.516C128.604 278.516 131.214 277.629 133.309 275.853L122.923 264.403C119.799 266.888 118.237 269.515 118.237 272.285C118.237 274.202 118.894 275.729 120.207 276.865C121.557 277.966 123.314 278.516 125.48 278.516ZM121.113 253.325C121.113 254.993 122.036 256.911 123.882 259.077C124.024 258.97 125.054 258.26 126.971 256.946C127.717 256.378 128.374 255.686 128.942 254.869C129.545 254.053 129.847 253.289 129.847 252.579C129.847 251.656 129.457 250.857 128.675 250.182C127.894 249.508 126.847 249.17 125.533 249.17C124.219 249.17 123.154 249.561 122.338 250.342C121.521 251.088 121.113 252.082 121.113 253.325Z" fill="white"/>
<path d="M161.767 249.437L161.767 261.953C165.388 262.627 168.051 263.781 169.755 265.415C171.46 267.012 172.312 269.32 172.312 272.338C172.312 274.93 171.442 277.203 169.702 279.155C167.962 281.179 165.317 282.315 161.767 282.564L161.767 288.423L157.825 288.423L157.825 282.564C152.961 282.138 149.304 280.132 146.854 276.546L150.635 273.936C151.807 275.321 152.926 276.368 153.991 277.078C155.056 277.753 156.334 278.197 157.825 278.41L157.825 265.521C151.044 264.172 147.653 260.674 147.653 255.029C147.653 252.295 148.523 250.04 150.263 248.265C152.002 246.49 154.523 245.46 157.825 245.176L157.825 238.998L161.767 238.998L161.767 245.176C166.098 245.673 169.4 247.679 171.673 251.194L168.104 253.751C166.258 251.265 164.145 249.827 161.767 249.437ZM161.767 266.267L161.767 278.41C165.743 277.948 167.732 275.995 167.732 272.551C167.732 270.918 167.27 269.604 166.347 268.61C165.459 267.58 163.932 266.799 161.767 266.267ZM157.825 261.101L157.825 249.33C156.086 249.543 154.719 250.147 153.724 251.141C152.73 252.135 152.233 253.431 152.233 255.029C152.233 256.662 152.677 257.958 153.565 258.917C154.452 259.84 155.873 260.568 157.825 261.101Z" fill="white"/>
<path d="M176.36 245.496L180.94 245.496L180.94 272.178L176.36 272.178L176.36 245.496ZM181.206 282.244L176.093 282.244L176.093 277.132L181.206 277.132L181.206 282.244Z" fill="white"/>
<path d="M185.351 260.089L185.351 255.934L192.275 255.934L194.245 245.496L198.879 245.496L196.908 255.934L204.897 255.934L206.868 245.496L211.554 245.496L209.584 255.934L215.336 255.934L215.336 260.089L208.785 260.089L207.507 267.119L213.365 267.119L213.365 271.273L206.708 271.273L204.684 282.244L200.05 282.244L202.074 271.273L194.085 271.273L192.062 282.244L187.375 282.244L189.399 271.273L183.38 271.273L183.38 267.119L190.197 267.119L191.476 260.089L185.351 260.089ZM204.151 260.089L196.162 260.089L194.831 267.119L202.82 267.119L204.151 260.089Z" fill="white"/>
<path d="M223.296 282.244L243.854 245.496L248.275 245.496L227.77 282.244L223.296 282.244ZM254.187 272.019L254.187 274.309C254.187 276.901 253.53 278.942 252.216 280.434C250.902 281.925 248.985 282.671 246.464 282.671C244.05 282.671 242.168 281.925 240.819 280.434C239.505 278.942 238.848 276.901 238.848 274.309L238.848 272.019C238.848 269.427 239.523 267.403 240.872 265.947C242.221 264.491 244.085 263.763 246.464 263.763C248.914 263.763 250.814 264.491 252.163 265.947C253.512 267.367 254.187 269.391 254.187 272.019ZM246.464 279.475C247.884 279.475 248.967 279.013 249.713 278.09C250.459 277.167 250.831 275.889 250.831 274.256L250.831 272.125C250.831 268.717 249.376 267.012 246.464 267.012C245.115 267.012 244.068 267.456 243.322 268.344C242.612 269.231 242.257 270.492 242.257 272.125L242.257 274.256C242.257 277.735 243.659 279.475 246.464 279.475ZM233.309 253.325L233.309 255.615C233.309 258.207 232.652 260.248 231.339 261.74C230.025 263.231 228.107 263.977 225.587 263.977C223.172 263.977 221.29 263.231 219.941 261.74C218.627 260.248 217.97 258.207 217.97 255.615L217.97 253.325C217.97 250.733 218.645 248.709 219.994 247.253C221.344 245.797 223.208 245.069 225.587 245.069C228.036 245.069 229.936 245.797 231.285 247.253C232.635 248.673 233.309 250.697 233.309 253.325ZM225.587 260.781C227.007 260.781 228.09 260.319 228.835 259.396C229.581 258.473 229.954 257.195 229.954 255.562L229.954 253.431C229.954 250.023 228.498 248.318 225.587 248.318C224.237 248.318 223.19 248.762 222.444 249.65C221.734 250.537 221.379 251.798 221.379 253.431L221.379 255.562C221.379 259.041 222.782 260.781 225.587 260.781Z" fill="white"/>
</g>
</g>
</g>
<rect id="Finish Layer" x="-34" y="-34" width="432" height="432" fill="url(#paint0_radial)" fill-opacity="0.1"/>
</g>
</g>
</g>
</g>
</g>
</g>
</g>
<defs>
<filter id="filter0_dd" x="34" y="38" width="296" height="300" filterUnits="userSpaceOnUse" color-interpolation-filters="sRGB">
<feFlood flood-opacity="0" result="BackgroundImageFix"/>
<feColorMatrix in="SourceAlpha" type="matrix" values="0 0 0 0 0 0 0 0 0 0 0 0 0 0 0 0 0 0 127 0"/>
<feOffset dy="4"/>
<feGaussianBlur stdDeviation="2"/>
<feColorMatrix type="matrix" values="0 0 0 0 0 0 0 0 0 0 0 0 0 0 0 0 0 0 0.12 0"/>
<feBlend mode="normal" in2="BackgroundImageFix" result="effect1_dropShadow"/>
<feColorMatrix in="SourceAlpha" type="matrix" values="0 0 0 0 0 0 0 0 0 0 0 0 0 0 0 0 0 0 127 0"/>
<feOffset dy="8"/>
<feGaussianBlur stdDeviation="2"/>
<feColorMatrix type="matrix" values="0 0 0 0 0 0 0 0 0 0 0 0 0 0 0 0 0 0 0.12 0"/>
<feBlend mode="normal" in2="effect1_dropShadow" result="effect2_dropShadow"/>
<feBlend mode="normal" in="SourceGraphic" in2="effect2_dropShadow" result="shape"/>
</filter>
<filter id="filter1_dddii" x="-126.997" y="201" width="618.096" height="258.239" filterUnits="userSpaceOnUse" color-interpolation-filters="sRGB">
<feFlood flood-opacity="0" result="BackgroundImageFix"/>
<feColorMatrix in="SourceAlpha" type="matrix" values="0 0 0 0 0 0 0 0 0 0 0 0 0 0 0 0 0 0 127 0"/>
<feOffset/>
<feGaussianBlur stdDeviation="6"/>
<feColorMatrix type="matrix" values="0 0 0 0 0.195833 0 0 0 0 0.122849 0 0 0 0 0.110156 0 0 0 0.24 0"/>
<feBlend mode="normal" in2="BackgroundImageFix" result="effect1_dropShadow"/>
<feColorMatrix in="SourceAlpha" type="matrix" values="0 0 0 0 0 0 0 0 0 0 0 0 0 0 0 0 0 0 127 0"/>
<feOffset dy="4"/>
<feColorMatrix type="matrix" values="0 0 0 0 0.196078 0 0 0 0 0.121569 0 0 0 0 0.109804 0 0 0 0.24 0"/>
<feBlend mode="normal" in2="effect1_dropShadow" result="effect2_dropShadow"/>
<feColorMatrix in="SourceAlpha" type="matrix" values="0 0 0 0 0 0 0 0 0 0 0 0 0 0 0 0 0 0 127 0"/>
<feOffset dy="10"/>
<feGaussianBlur stdDeviation="6"/>
<feColorMatrix type="matrix" values="0 0 0 0 0.196078 0 0 0 0 0.121569 0 0 0 0 0.109804 0 0 0 0.36 0"/>
<feBlend mode="normal" in2="effect2_dropShadow" result="effect3_dropShadow"/>
<feBlend mode="normal" in="SourceGraphic" in2="effect3_dropShadow" result="shape"/>
<feColorMatrix in="SourceAlpha" type="matrix" values="0 0 0 0 0 0 0 0 0 0 0 0 0 0 0 0 0 0 127 0" result="hardAlpha"/>
<feOffset dy="3"/>
<feComposite in2="hardAlpha" operator="arithmetic" k2="-1" k3="1"/>
<feColorMatrix type="matrix" values="0 0 0 0 1 0 0 0 0 1 0 0 0 0 1 0 0 0 0.6 0"/>
<feBlend mode="normal" in2="shape" result="effect4_innerShadow"/>
<feColorMatrix in="SourceAlpha" type="matrix" values="0 0 0 0 0 0 0 0 0 0 0 0 0 0 0 0 0 0 127 0" result="hardAlpha"/>
<feOffset dy="-3"/>
<feComposite in2="hardAlpha" operator="arithmetic" k2="-1" k3="1"/>
<feColorMatrix type="matrix" values="0 0 0 0 0.0862745 0 0 0 0 0.0862745 0 0 0 0 0.0862745 0 0 0 0.2 0"/>
<feBlend mode="normal" in2="effect4_innerShadow" result="effect5_innerShadow"/>
</filter>
<radialGradient id="paint0_radial" cx="0" cy="0" r="1" gradientUnits="userSpaceOnUse" gradientTransform="translate(78 77.9999) rotate(45) scale(294.156)">
<stop stop-color="white"/>
<stop offset="0.375691" stop-color="white" stop-opacity="0.502762"/>
<stop offset="1" stop-color="white" stop-opacity="0"/>
</radialGradient>
<clipPath id="clip0">
<rect width="364" height="364" fill="white"/>
</clipPath>
<clipPath id="clip1">
<rect width="432" height="432" fill="white" transform="translate(-34 -34)"/>
</clipPath>
<clipPath id="clip2">
<rect width="432" height="432" fill="white" transform="translate(-34 -34)"/>
</clipPath>
</defs>
</svg>
