<svg width="432" height="432" viewBox="0 0 432 432" fill="none" xmlns="http://www.w3.org/2000/svg">
<g id="ic_launcher_foreground" clip-path="url(#clip0)">
<g id="Plate" filter="url(#filter0_dddii)">
<g id="Group 17">
<rect id="Rectangle 12" x="-80.9969" y="248.991" width="594.096" height="222.248" fill="#FF101F"/>
<g id="&#38;$!#%">
<path d="M147.869 306.338C147.869 302.362 150.018 298.758 154.314 295.527C151.793 292.473 150.532 289.739 150.532 287.325C150.532 284.875 151.367 282.886 153.036 281.36C154.704 279.833 156.87 279.069 159.533 279.069C162.445 279.069 164.646 279.744 166.137 281.093C167.664 282.443 168.428 284.165 168.427 286.259C168.427 288.248 167.558 290.041 165.818 291.639C164.966 292.42 164.185 293.112 163.474 293.716C163.013 294.106 162.001 294.816 160.439 295.846L170.079 306.338C171.215 304.172 171.783 301.758 171.783 299.095L175.937 299.095C175.937 303.036 174.961 306.516 173.008 309.534L179.186 316.244L173.168 316.244L170.132 312.942C167.327 315.428 163.776 316.671 159.48 316.671C155.787 316.671 152.929 315.659 150.905 313.635C148.881 311.611 147.869 309.179 147.869 306.338ZM159.48 312.516C162.604 312.516 165.214 311.629 167.309 309.853L156.923 298.403C153.799 300.888 152.237 303.515 152.237 306.285C152.237 308.202 152.894 309.729 154.207 310.865C155.557 311.966 157.314 312.516 159.48 312.516ZM155.113 287.325C155.113 288.993 156.036 290.911 157.882 293.077C158.024 292.97 159.054 292.26 160.971 290.946C161.717 290.378 162.374 289.686 162.942 288.869C163.545 288.053 163.847 287.289 163.847 286.579C163.847 285.656 163.457 284.857 162.675 284.182C161.894 283.508 160.847 283.17 159.533 283.17C158.219 283.17 157.154 283.561 156.338 284.342C155.521 285.088 155.113 286.082 155.113 287.325Z" fill="white"/>
<path d="M195.767 283.437L195.767 295.953C199.388 296.627 202.051 297.781 203.755 299.415C205.46 301.012 206.312 303.32 206.312 306.338C206.312 308.93 205.442 311.203 203.702 313.155C201.962 315.179 199.317 316.315 195.767 316.564L195.767 322.423L191.825 322.423L191.825 316.564C186.961 316.138 183.304 314.132 180.854 310.546L184.635 307.936C185.807 309.321 186.926 310.368 187.991 311.078C189.056 311.753 190.334 312.197 191.825 312.41L191.825 299.521C185.044 298.172 181.653 294.674 181.653 289.029C181.653 286.295 182.523 284.04 184.263 282.265C186.002 280.49 188.523 279.46 191.825 279.176L191.825 272.998L195.767 272.998L195.767 279.176C200.098 279.673 203.4 281.679 205.673 285.194L202.104 287.751C200.258 285.265 198.145 283.827 195.767 283.437ZM195.767 300.267L195.767 312.41C199.743 311.948 201.732 309.995 201.732 306.551C201.732 304.918 201.27 303.604 200.347 302.61C199.459 301.58 197.932 300.799 195.767 300.267ZM191.825 295.101L191.825 283.33C190.086 283.543 188.719 284.147 187.724 285.141C186.73 286.135 186.233 287.431 186.233 289.029C186.233 290.662 186.677 291.958 187.565 292.917C188.452 293.84 189.873 294.568 191.825 295.101Z" fill="white"/>
<path d="M210.36 279.496L214.94 279.496L214.94 306.178L210.36 306.178L210.36 279.496ZM215.206 316.244L210.093 316.244L210.093 311.132L215.206 311.132L215.206 316.244Z" fill="white"/>
<path d="M219.351 294.089L219.351 289.934L226.275 289.934L228.245 279.496L232.879 279.496L230.908 289.934L238.897 289.934L240.868 279.496L245.554 279.496L243.584 289.934L249.336 289.934L249.336 294.089L242.785 294.089L241.507 301.119L247.365 301.119L247.365 305.273L240.708 305.273L238.684 316.244L234.05 316.244L236.074 305.273L228.085 305.273L226.062 316.244L221.375 316.244L223.399 305.273L217.38 305.273L217.38 301.119L224.197 301.119L225.476 294.089L219.351 294.089ZM238.151 294.089L230.162 294.089L228.831 301.119L236.82 301.119L238.151 294.089Z" fill="white"/>
<path d="M257.296 316.244L277.854 279.496L282.275 279.496L261.77 316.244L257.296 316.244ZM288.187 306.019L288.187 308.309C288.187 310.901 287.53 312.942 286.216 314.434C284.902 315.925 282.985 316.671 280.464 316.671C278.05 316.671 276.168 315.925 274.819 314.434C273.505 312.942 272.848 310.901 272.848 308.309L272.848 306.019C272.848 303.427 273.523 301.403 274.872 299.947C276.221 298.491 278.085 297.763 280.464 297.763C282.914 297.763 284.814 298.491 286.163 299.947C287.512 301.367 288.187 303.391 288.187 306.019ZM280.464 313.475C281.884 313.475 282.967 313.013 283.713 312.09C284.459 311.167 284.831 309.889 284.831 308.256L284.831 306.125C284.831 302.717 283.376 301.012 280.464 301.012C279.115 301.012 278.068 301.456 277.322 302.344C276.612 303.231 276.257 304.492 276.257 306.125L276.257 308.256C276.257 311.735 277.659 313.475 280.464 313.475ZM267.309 287.325L267.309 289.615C267.309 292.207 266.652 294.248 265.339 295.74C264.025 297.231 262.107 297.977 259.587 297.977C257.172 297.977 255.29 297.231 253.941 295.74C252.627 294.248 251.97 292.207 251.97 289.615L251.97 287.325C251.97 284.733 252.645 282.709 253.994 281.253C255.344 279.797 257.208 279.069 259.587 279.069C262.036 279.069 263.936 279.797 265.285 281.253C266.635 282.673 267.309 284.697 267.309 287.325ZM259.587 294.781C261.007 294.781 262.09 294.319 262.835 293.396C263.581 292.473 263.954 291.195 263.954 289.562L263.954 287.431C263.954 284.023 262.498 282.318 259.587 282.318C258.237 282.318 257.19 282.762 256.444 283.65C255.734 284.537 255.379 285.798 255.379 287.431L255.379 289.562C255.379 293.041 256.782 294.781 259.587 294.781Z" fill="white"/>
</g>
</g>
</g>
<rect id="Finish Layer" width="432" height="432" fill="url(#paint0_radial)" fill-opacity="0.1"/>
</g>
<defs>
<filter id="filter0_dddii" x="-92.9969" y="235" width="618.096" height="258.239" filterUnits="userSpaceOnUse" color-interpolation-filters="sRGB">
<feFlood flood-opacity="0" result="BackgroundImageFix"/>
<feColorMatrix in="SourceAlpha" type="matrix" values="0 0 0 0 0 0 0 0 0 0 0 0 0 0 0 0 0 0 127 0"/>
<feOffset/>
<feGaussianBlur stdDeviation="6"/>
<feColorMatrix type="matrix" values="0 0 0 0 0.195833 0 0 0 0 0.122849 0 0 0 0 0.110156 0 0 0 0.24 0"/>
<feBlend mode="normal" in2="BackgroundImageFix" result="effect1_dropShadow"/>
<feColorMatrix in="SourceAlpha" type="matrix" values="0 0 0 0 0 0 0 0 0 0 0 0 0 0 0 0 0 0 127 0"/>
<feOffset dy="4"/>
<feColorMatrix type="matrix" values="0 0 0 0 0.196078 0 0 0 0 0.121569 0 0 0 0 0.109804 0 0 0 0.24 0"/>
<feBlend mode="normal" in2="effect1_dropShadow" result="effect2_dropShadow"/>
<feColorMatrix in="SourceAlpha" type="matrix" values="0 0 0 0 0 0 0 0 0 0 0 0 0 0 0 0 0 0 127 0"/>
<feOffset dy="10"/>
<feGaussianBlur stdDeviation="6"/>
<feColorMatrix type="matrix" values="0 0 0 0 0.196078 0 0 0 0 0.121569 0 0 0 0 0.109804 0 0 0 0.36 0"/>
<feBlend mode="normal" in2="effect2_dropShadow" result="effect3_dropShadow"/>
<feBlend mode="normal" in="SourceGraphic" in2="effect3_dropShadow" result="shape"/>
<feColorMatrix in="SourceAlpha" type="matrix" values="0 0 0 0 0 0 0 0 0 0 0 0 0 0 0 0 0 0 127 0" result="hardAlpha"/>
<feOffset dy="3"/>
<feComposite in2="hardAlpha" operator="arithmetic" k2="-1" k3="1"/>
<feColorMatrix type="matrix" values="0 0 0 0 1 0 0 0 0 1 0 0 0 0 1 0 0 0 0.6 0"/>
<feBlend mode="normal" in2="shape" result="effect4_innerShadow"/>
<feColorMatrix in="SourceAlpha" type="matrix" values="0 0 0 0 0 0 0 0 0 0 0 0 0 0 0 0 0 0 127 0" result="hardAlpha"/>
<feOffset dy="-3"/>
<feComposite in2="hardAlpha" operator="arithmetic" k2="-1" k3="1"/>
<feColorMatrix type="matrix" values="0 0 0 0 0.0862745 0 0 0 0 0.0862745 0 0 0 0 0.0862745 0 0 0 0.2 0"/>
<feBlend mode="normal" in2="effect4_innerShadow" result="effect5_innerShadow"/>
</filter>
<radialGradient id="paint0_radial" cx="0" cy="0" r="1" gradientUnits="userSpaceOnUse" gradientTransform="translate(112 112) rotate(45) scale(294.156)">
<stop stop-color="white"/>
<stop offset="0.375691" stop-color="white" stop-opacity="0.502762"/>
<stop offset="1" stop-color="white" stop-opacity="0"/>
</radialGradient>
<clipPath id="clip0">
<rect width="432" height="432" fill="white"/>
</clipPath>
</defs>
</svg>
