<svg width="432" height="432" viewBox="0 0 432 432" fill="none" xmlns="http://www.w3.org/2000/svg">
<g id="ic_launcher_background" clip-path="url(#clip0)">
<rect id="background" width="432" height="432" fill="#FFAB00"/>
<g id="Group 18">
<g id="Evil Insult">
<path d="M120 159.562V126H140.308V130.913H125.569V139.765H138.868V144.629H125.569V154.698H140.308V159.562H120Z" fill="#C22700"/>
<path d="M154.048 152.607L160.241 135.242H165.954L156.593 159.562H151.696L142.142 135.242H147.807L154.048 152.607Z" fill="#C22700"/>
<path d="M174.736 159.562H169.599V135.242H174.736V159.562ZM174.976 131.302H169.359V126H174.976V131.302Z" fill="#C22700"/>
<path d="M180.928 151.926V126H186.065V150.71C186.065 152.234 186.321 153.336 186.833 154.017C187.345 154.666 188.305 154.99 189.713 154.99V159.562C186.545 159.562 184.288 158.995 182.944 157.86C181.6 156.692 180.928 154.714 180.928 151.926Z" fill="#C22700"/>
<path d="M207.871 126H213.441V159.562H207.871V126Z" fill="#C22700"/>
<path d="M225.4 159.562H220.263V135.242H225.304V137.431C226.584 135.68 228.569 134.804 231.257 134.804C234.01 134.804 236.154 135.598 237.69 137.187C239.227 138.744 239.995 141.127 239.995 144.338V159.562H234.906V144.921C234.906 141.257 233.386 139.425 230.345 139.425C228.809 139.425 227.592 139.928 226.696 140.933C225.832 141.906 225.4 143.219 225.4 144.873V159.562Z" fill="#C22700"/>
<path d="M262.625 138.841L258.832 141.614C258.224 140.803 257.536 140.236 256.768 139.911C255.999 139.587 254.943 139.425 253.599 139.425C251.102 139.425 249.854 140.252 249.854 141.906C249.854 142.814 250.206 143.495 250.91 143.948C251.647 144.402 252.815 144.727 254.415 144.921C257.36 145.246 259.552 146.024 260.992 147.256C262.465 148.456 263.201 150.239 263.201 152.607C263.201 154.941 262.401 156.757 260.8 158.054C259.232 159.351 256.96 160 253.983 160C249.534 160 246.318 158.654 244.333 155.963L248.222 153.142C249.342 154.666 251.246 155.428 253.935 155.428C255.247 155.428 256.271 155.201 257.008 154.747C257.744 154.26 258.112 153.596 258.112 152.753C258.112 151.812 257.76 151.131 257.056 150.71C256.383 150.288 255.071 149.948 253.119 149.688C247.518 148.975 244.717 146.429 244.717 142.052C244.717 139.814 245.501 138.047 247.07 136.75C248.638 135.453 250.846 134.804 253.695 134.804C257.952 134.804 260.928 136.15 262.625 138.841Z" fill="#C22700"/>
<path d="M282.493 135.242H287.582V159.562H282.541V157.373C281.933 158.314 281.181 158.995 280.284 159.416C279.42 159.805 278.204 160 276.636 160C273.883 160 271.723 159.206 270.155 157.617C268.618 156.028 267.85 153.628 267.85 150.418V135.242H272.987V149.883C272.987 151.861 273.371 153.288 274.139 154.163C274.907 155.006 276.06 155.428 277.596 155.428C279.164 155.428 280.364 154.941 281.197 153.969C282.061 152.996 282.493 151.65 282.493 149.931V135.242Z" fill="#C22700"/>
<path d="M293.12 151.926V126H298.257V150.71C298.257 152.234 298.513 153.336 299.026 154.017C299.538 154.666 300.498 154.99 301.906 154.99V159.562C298.738 159.562 296.481 158.995 295.137 157.86C293.793 156.692 293.12 154.714 293.12 151.926Z" fill="#C22700"/>
<path d="M307.822 139.717H304.75V135.242H307.822V129.891H312.911V135.242H318V139.717H312.911V150.856C312.911 152.38 313.119 153.433 313.535 154.017C313.951 154.601 314.783 154.893 316.032 154.893H318V159.562H315.648C312.767 159.562 310.735 158.995 309.55 157.86C308.398 156.692 307.822 154.682 307.822 151.828V139.717Z" fill="#C22700"/>
</g>
<g id="Generator">
<path d="M104.716 203.11L106.166 195.61H121.986L121.229 199.614C119.927 206.394 117.7 211.331 114.548 214.424C111.439 217.475 107.09 219 101.502 219C96.5017 219 92.8041 217.305 90.4091 213.915C88.0141 210.525 87.4048 205.758 88.5813 199.614L89.6528 194.021C90.9974 187.114 93.3504 182.051 96.7118 178.831C100.073 175.61 104.548 174 110.137 174C114.464 174 117.763 175.292 120.032 177.877C122.343 180.419 123.456 183.852 123.372 188.174H114.927C114.927 183.725 112.847 181.5 108.687 181.5C103.477 181.5 100.115 185.462 98.6026 193.386L97.4051 199.614C95.8504 207.538 97.6992 211.5 102.951 211.5C105.305 211.5 107.195 210.822 108.624 209.466C110.095 208.068 111.229 205.949 112.027 203.11H104.716Z" fill="#C22700"/>
<path d="M143.938 209.403L149.296 213.725C146.564 217.242 142.342 219 136.627 219C132.299 219 129.127 217.665 127.11 214.996C125.093 212.242 124.484 208.788 125.282 204.636L126.165 200.314C127.089 195.483 128.833 191.903 131.396 189.572C133.959 187.199 137.446 186.034 141.858 186.076C146.06 186.119 149.001 187.453 150.682 190.081C152.405 192.708 152.825 196.331 151.943 200.949L151.249 204.572H133.287C132.404 209.614 133.896 212.136 137.762 212.136C140.325 212.136 142.384 211.225 143.938 209.403ZM140.598 192.941C137.573 192.941 135.514 194.89 134.421 198.788H144.316C144.905 194.89 143.665 192.941 140.598 192.941Z" fill="#C22700"/>
<path d="M162.489 218.428H154.421L160.535 186.648H168.413L167.972 188.873C169.947 187.008 172.552 186.076 175.788 186.076C179.317 186.076 181.922 187.136 183.603 189.254C185.326 191.331 185.767 194.445 184.927 198.597L181.082 218.428H173.077L176.607 200.059C177.069 197.559 176.985 195.78 176.355 194.72C175.767 193.619 174.59 193.068 172.825 193.068C171.061 193.068 169.59 193.682 168.413 194.911C167.237 196.14 166.439 197.835 166.018 199.996L162.489 218.428Z" fill="#C22700"/>
<path d="M207.765 209.403L213.123 213.725C210.392 217.242 206.169 219 200.454 219C196.126 219 192.954 217.665 190.937 214.996C188.92 212.242 188.311 208.788 189.109 204.636L189.992 200.314C190.916 195.483 192.66 191.903 195.223 189.572C197.786 187.199 201.274 186.034 205.686 186.076C209.887 186.119 212.829 187.453 214.509 190.081C216.232 192.708 216.652 196.331 215.77 200.949L215.077 204.572H197.114C196.231 209.614 197.723 212.136 201.589 212.136C204.152 212.136 206.211 211.225 207.765 209.403ZM204.425 192.941C201.4 192.941 199.341 194.89 198.248 198.788H208.144C208.732 194.89 207.492 192.941 204.425 192.941Z" fill="#C22700"/>
<path d="M246.611 191.161L239.741 195.483C238.984 193.873 237.829 193.068 236.274 193.068C234.72 193.068 233.375 193.661 232.241 194.847C231.106 195.992 230.329 197.623 229.909 199.742L226.316 218.428H218.249L224.362 186.648H232.241L231.799 188.873C233.648 187.008 236.064 186.076 239.048 186.076C242.745 186.076 245.266 187.771 246.611 191.161Z" fill="#C22700"/>
<path d="M243.669 210.61C243.669 206.966 244.887 204.191 247.324 202.284C249.761 200.335 253.123 199.36 257.409 199.36H263.648L264.026 197.517C264.363 195.695 264.215 194.466 263.585 193.831C262.955 193.153 261.526 192.814 259.299 192.814C257.745 192.814 256.526 193.004 255.644 193.386C254.761 193.725 253.9 194.424 253.06 195.483L247.891 191.288C249.488 189.212 251.274 187.835 253.249 187.157C255.308 186.436 258.018 186.076 261.379 186.076C265.623 186.076 268.627 187.008 270.392 188.873C272.157 190.695 272.661 193.597 271.905 197.581L267.871 218.428H259.993L260.497 215.949C258.816 217.983 256.337 219 253.06 219C250.287 219 248.018 218.237 246.253 216.712C244.53 215.186 243.669 213.153 243.669 210.61ZM262.262 206.542L262.514 205.335H257.219C253.564 205.335 251.736 206.733 251.736 209.53C251.736 211.479 253.06 212.453 255.707 212.453C257.598 212.453 259.047 212.008 260.056 211.119C261.106 210.186 261.841 208.661 262.262 206.542Z" fill="#C22700"/>
<path d="M280.875 193.513H276.842L278.165 186.648H282.199L283.522 179.657H291.527L290.203 186.648H296.38L295.056 193.513H288.88L286.296 206.797C285.959 208.492 285.98 209.678 286.359 210.356C286.737 210.992 287.619 211.309 289.006 211.309H291.59L290.203 218.428H286.8C283.144 218.428 280.581 217.644 279.111 216.076C277.682 214.466 277.325 211.797 278.039 208.068L280.875 193.513Z" fill="#C22700"/>
<path d="M324.746 200.568L323.989 204.381C323.023 209.297 321.216 212.962 318.569 215.377C315.964 217.792 312.392 219 307.854 219C303.526 219 300.375 217.686 298.4 215.059C296.425 212.432 295.879 208.873 296.762 204.381L297.518 200.568C298.484 195.695 300.291 192.072 302.938 189.699C305.627 187.284 309.262 186.076 313.842 186.076C318.17 186.076 321.279 187.369 323.17 189.953C325.103 192.538 325.628 196.076 324.746 200.568ZM308.863 212.136C312.644 212.136 315.039 209.466 316.048 204.127L316.678 200.822C317.602 195.568 316.237 192.941 312.581 192.941C308.758 192.941 306.384 195.568 305.459 200.822L304.829 204.127C304.283 206.797 304.304 208.809 304.892 210.165C305.522 211.479 306.846 212.136 308.863 212.136Z" fill="#C22700"/>
<path d="M355 191.161L348.13 195.483C347.374 193.873 346.218 193.068 344.664 193.068C343.109 193.068 341.764 193.661 340.63 194.847C339.495 195.992 338.718 197.623 338.298 199.742L334.705 218.428H326.638L332.751 186.648H340.63L340.189 188.873C342.037 187.008 344.453 186.076 347.437 186.076C351.134 186.076 353.655 187.771 355 191.161Z" fill="#C22700"/>
</g>
</g>
</g>
<defs>
<clipPath id="clip0">
<rect width="432" height="432" fill="white"/>
</clipPath>
</defs>
</svg>
