<svg width="322" height="322" viewBox="0 0 322 322" fill="none" xmlns="http://www.w3.org/2000/svg">
<g id="ic_launcher_teardrop" clip-path="url(#clip0)">
<g id="Teardrop Preview">
<g id="Clipped Preview Icon" filter="url(#filter0_dd)">
<mask id="mask0" mask-type="alpha" maskUnits="userSpaceOnUse" x="17" y="17" width="288" height="288">
<path id="Teardrop" d="M305 161C305 81.471 240.529 17 161 17C81.4709 17 17 81.471 17 161C17 240.529 81.4709 305 161 305H265C287.091 305 305 287.091 305 265V161Z" fill="#FF9800"/>
</mask>
<g mask="url(#mask0)">
<g id="Combined Foreground/Background">
<g id="Composite">
<g id="ic_launcher_background" clip-path="url(#clip1)">
<rect id="background" x="-55" y="-55" width="432" height="432" fill="#FFAB00"/>
<g id="Group 18">
<g id="Evil Insult">
<path d="M65 104.562V71H85.3078V75.9127H70.569V84.7654H83.8675V89.6295H70.569V99.6981H85.3078V104.562H65Z" fill="#C22700"/>
<path d="M99.0481 97.6066L105.241 80.2418H110.954L101.593 104.562H96.6957L87.1419 80.2418H92.807L99.0481 97.6066Z" fill="#C22700"/>
<path d="M119.736 104.562H114.599V80.2418H119.736V104.562ZM119.976 76.3019H114.359V71H119.976V76.3019Z" fill="#C22700"/>
<path d="M125.928 96.9256V71H131.065V95.7096C131.065 97.2337 131.321 98.3362 131.833 99.0172C132.345 99.6657 133.305 99.99 134.713 99.99V104.562C131.545 104.562 129.288 103.995 127.944 102.86C126.6 101.692 125.928 99.7144 125.928 96.9256Z" fill="#C22700"/>
<path d="M152.871 71H158.441V104.562H152.871V71Z" fill="#C22700"/>
<path d="M170.4 104.562H165.263V80.2418H170.304V82.4306C171.584 80.6795 173.569 79.804 176.257 79.804C179.01 79.804 181.154 80.5985 182.69 82.1874C184.227 83.7439 184.995 86.1273 184.995 89.3376V104.562H179.906V89.9213C179.906 86.257 178.386 84.4249 175.345 84.4249C173.809 84.4249 172.592 84.9275 171.696 85.9328C170.832 86.9056 170.4 88.2189 170.4 89.8727V104.562Z" fill="#C22700"/>
<path d="M207.625 83.8412L203.832 86.6137C203.224 85.8031 202.536 85.2356 201.768 84.9113C200.999 84.587 199.943 84.4249 198.599 84.4249C196.102 84.4249 194.854 85.2518 194.854 86.9056C194.854 87.8135 195.206 88.4945 195.91 88.9485C196.647 89.4025 197.815 89.7268 199.415 89.9213C202.36 90.2456 204.552 91.0238 205.992 92.2561C207.465 93.4559 208.201 95.2394 208.201 97.6066C208.201 99.9413 207.401 101.757 205.8 103.054C204.232 104.351 201.96 105 198.983 105C194.534 105 191.318 103.654 189.333 100.963L193.222 98.1416C194.342 99.6657 196.246 100.428 198.935 100.428C200.247 100.428 201.271 100.201 202.008 99.7468C202.744 99.2604 203.112 98.5956 203.112 97.7525C203.112 96.8121 202.76 96.1311 202.056 95.7096C201.383 95.288 200.071 94.9475 198.119 94.6881C192.518 93.9747 189.717 91.4292 189.717 87.0515C189.717 84.814 190.501 83.0467 192.07 81.7496C193.638 80.4526 195.846 79.804 198.695 79.804C202.952 79.804 205.928 81.1497 207.625 83.8412Z" fill="#C22700"/>
<path d="M227.493 80.2418H232.582V104.562H227.541V102.373C226.933 103.314 226.181 103.995 225.284 104.416C224.42 104.805 223.204 105 221.636 105C218.883 105 216.723 104.206 215.155 102.617C213.618 101.028 212.85 98.628 212.85 95.4177V80.2418H217.987V94.8827C217.987 96.8608 218.371 98.2876 219.139 99.1631C219.907 100.006 221.06 100.428 222.596 100.428C224.164 100.428 225.364 99.9413 226.197 98.9685C227.061 97.9957 227.493 96.65 227.493 94.9313V80.2418Z" fill="#C22700"/>
<path d="M238.12 96.9256V71H243.257V95.7096C243.257 97.2337 243.513 98.3362 244.026 99.0172C244.538 99.6657 245.498 99.99 246.906 99.99V104.562C243.738 104.562 241.481 103.995 240.137 102.86C238.793 101.692 238.12 99.7144 238.12 96.9256Z" fill="#C22700"/>
<path d="M252.822 84.7167H249.75V80.2418H252.822V74.8913H257.911V80.2418H263V84.7167H257.911V95.8555C257.911 97.3796 258.119 98.4335 258.535 99.0172C258.951 99.6009 259.783 99.8927 261.032 99.8927H263V104.562H260.648C257.767 104.562 255.735 103.995 254.55 102.86C253.398 101.692 252.822 99.6819 252.822 96.8283V84.7167Z" fill="#C22700"/>
</g>
<g id="Generator">
<path d="M49.7163 148.11L51.1659 140.61H66.9857L66.2293 144.614C64.9268 151.394 62.6998 156.331 59.5485 159.424C56.4391 162.475 52.0903 164 46.5019 164C41.5017 164 37.8041 162.305 35.4091 158.915C33.0141 155.525 32.4048 150.758 33.5813 144.614L34.6528 139.021C35.9974 132.114 38.3504 127.051 41.7118 123.831C45.0733 120.61 49.5482 119 55.1366 119C59.4644 119 62.7628 120.292 65.0318 122.877C67.3428 125.419 68.4563 128.852 68.3722 133.174H59.9266C59.9266 128.725 57.8467 126.5 53.687 126.5C48.4767 126.5 45.1153 130.462 43.6026 138.386L42.4051 144.614C40.8504 152.538 42.6992 156.5 47.9515 156.5C50.3045 156.5 52.1953 155.822 53.6239 154.466C55.0946 153.068 56.229 150.949 57.0274 148.11H49.7163Z" fill="#C22700"/>
<path d="M88.9383 154.403L94.2956 158.725C91.5644 162.242 87.3416 164 81.6271 164C77.2993 164 74.1269 162.665 72.11 159.996C70.0932 157.242 69.4839 153.788 70.2823 149.636L71.1646 145.314C72.089 140.483 73.8328 136.903 76.3959 134.572C78.959 132.199 82.4465 131.034 86.8584 131.076C91.0602 131.119 94.0014 132.453 95.6822 135.081C97.4049 137.708 97.8251 141.331 96.9427 145.949L96.2494 149.572H78.2867C77.4043 154.614 78.896 157.136 82.7616 157.136C85.3247 157.136 87.3836 156.225 88.9383 154.403ZM85.5978 137.941C82.5725 137.941 80.5136 139.89 79.4212 143.788H89.3164C89.9047 139.89 88.6651 137.941 85.5978 137.941Z" fill="#C22700"/>
<path d="M107.489 163.428H99.4214L105.535 131.648H113.413L112.972 133.873C114.947 132.008 117.552 131.076 120.788 131.076C124.317 131.076 126.922 132.136 128.603 134.254C130.326 136.331 130.767 139.445 129.927 143.597L126.082 163.428H118.077L121.607 145.059C122.069 142.559 121.985 140.78 121.355 139.72C120.767 138.619 119.59 138.068 117.825 138.068C116.061 138.068 114.59 138.682 113.413 139.911C112.237 141.14 111.439 142.835 111.018 144.996L107.489 163.428Z" fill="#C22700"/>
<path d="M152.765 154.403L158.123 158.725C155.392 162.242 151.169 164 145.454 164C141.126 164 137.954 162.665 135.937 159.996C133.92 157.242 133.311 153.788 134.109 149.636L134.992 145.314C135.916 140.483 137.66 136.903 140.223 134.572C142.786 132.199 146.274 131.034 150.686 131.076C154.887 131.119 157.829 132.453 159.509 135.081C161.232 137.708 161.652 141.331 160.77 145.949L160.077 149.572H142.114C141.231 154.614 142.723 157.136 146.589 157.136C149.152 157.136 151.211 156.225 152.765 154.403ZM149.425 137.941C146.4 137.941 144.341 139.89 143.248 143.788H153.144C153.732 139.89 152.492 137.941 149.425 137.941Z" fill="#C22700"/>
<path d="M191.611 136.161L184.741 140.483C183.984 138.873 182.829 138.068 181.274 138.068C179.72 138.068 178.375 138.661 177.241 139.847C176.106 140.992 175.329 142.623 174.909 144.742L171.316 163.428H163.249L169.362 131.648H177.241L176.799 133.873C178.648 132.008 181.064 131.076 184.048 131.076C187.745 131.076 190.266 132.771 191.611 136.161Z" fill="#C22700"/>
<path d="M188.669 155.61C188.669 151.966 189.887 149.191 192.324 147.284C194.761 145.335 198.123 144.36 202.409 144.36H208.648L209.026 142.517C209.363 140.695 209.215 139.466 208.585 138.831C207.955 138.153 206.526 137.814 204.299 137.814C202.745 137.814 201.526 138.004 200.644 138.386C199.761 138.725 198.9 139.424 198.06 140.483L192.891 136.288C194.488 134.212 196.274 132.835 198.249 132.157C200.308 131.436 203.018 131.076 206.379 131.076C210.623 131.076 213.627 132.008 215.392 133.873C217.157 135.695 217.661 138.597 216.905 142.581L212.871 163.428H204.993L205.497 160.949C203.816 162.983 201.337 164 198.06 164C195.287 164 193.018 163.237 191.253 161.712C189.53 160.186 188.669 158.153 188.669 155.61ZM207.262 151.542L207.514 150.335H202.219C198.564 150.335 196.736 151.733 196.736 154.53C196.736 156.479 198.06 157.453 200.707 157.453C202.598 157.453 204.047 157.008 205.056 156.119C206.106 155.186 206.841 153.661 207.262 151.542Z" fill="#C22700"/>
<path d="M225.875 138.513H221.842L223.165 131.648H227.199L228.522 124.657H236.527L235.203 131.648H241.38L240.056 138.513H233.88L231.296 151.797C230.959 153.492 230.98 154.678 231.359 155.356C231.737 155.992 232.619 156.309 234.006 156.309H236.59L235.203 163.428H231.8C228.144 163.428 225.581 162.644 224.111 161.076C222.682 159.466 222.325 156.797 223.039 153.068L225.875 138.513Z" fill="#C22700"/>
<path d="M269.746 145.568L268.989 149.381C268.023 154.297 266.216 157.962 263.569 160.377C260.964 162.792 257.392 164 252.854 164C248.526 164 245.375 162.686 243.4 160.059C241.425 157.432 240.879 153.873 241.762 149.381L242.518 145.568C243.484 140.695 245.291 137.072 247.938 134.699C250.627 132.284 254.262 131.076 258.842 131.076C263.17 131.076 266.279 132.369 268.17 134.953C270.103 137.538 270.628 141.076 269.746 145.568ZM253.863 157.136C257.644 157.136 260.039 154.466 261.048 149.127L261.678 145.822C262.602 140.568 261.237 137.941 257.581 137.941C253.758 137.941 251.384 140.568 250.459 145.822L249.829 149.127C249.283 151.797 249.304 153.809 249.892 155.165C250.522 156.479 251.846 157.136 253.863 157.136Z" fill="#C22700"/>
<path d="M300 136.161L293.13 140.483C292.374 138.873 291.218 138.068 289.664 138.068C288.109 138.068 286.764 138.661 285.63 139.847C284.495 140.992 283.718 142.623 283.298 144.742L279.705 163.428H271.638L277.751 131.648H285.63L285.189 133.873C287.037 132.008 289.453 131.076 292.437 131.076C296.134 131.076 298.655 132.771 300 136.161Z" fill="#C22700"/>
</g>
</g>
</g>
<g id="ic_launcher_foreground" clip-path="url(#clip2)">
<g id="Plate" filter="url(#filter1_dddii)">
<g id="Group 17">
<rect id="Rectangle 12" x="-135.997" y="193.991" width="594.096" height="222.248" fill="#FF101F"/>
<g id="&#38;$!#%">
<path d="M92.8694 251.338C92.8694 247.362 95.0175 243.758 99.3138 240.527C96.7929 237.473 95.5324 234.739 95.5324 232.325C95.5324 229.875 96.3668 227.886 98.0356 226.36C99.7044 224.833 101.87 224.069 104.533 224.069C107.445 224.069 109.646 224.744 111.137 226.093C112.664 227.443 113.428 229.165 113.427 231.259C113.427 233.248 112.558 235.041 110.818 236.639C109.966 237.42 109.185 238.112 108.474 238.716C108.013 239.106 107.001 239.816 105.439 240.846L115.079 251.338C116.215 249.172 116.783 246.758 116.783 244.095L120.937 244.095C120.937 248.036 119.961 251.516 118.008 254.534L124.186 261.244L118.168 261.244L115.132 257.942C112.327 260.428 108.776 261.671 104.48 261.671C100.787 261.671 97.9291 260.659 95.9052 258.635C93.8813 256.611 92.8694 254.179 92.8694 251.338ZM104.48 257.516C107.604 257.516 110.214 256.629 112.309 254.853L101.923 243.403C98.799 245.888 97.2367 248.515 97.2367 251.285C97.2367 253.202 97.8935 254.729 99.2073 255.865C100.557 256.966 102.314 257.516 104.48 257.516ZM100.113 232.325C100.113 233.993 101.036 235.911 102.882 238.077C103.024 237.97 104.054 237.26 105.971 235.946C106.717 235.378 107.374 234.686 107.942 233.869C108.545 233.053 108.847 232.289 108.847 231.579C108.847 230.656 108.457 229.857 107.675 229.182C106.894 228.508 105.847 228.17 104.533 228.17C103.219 228.17 102.154 228.561 101.338 229.342C100.521 230.088 100.113 231.082 100.113 232.325Z" fill="white"/>
<path d="M140.767 228.437L140.767 240.953C144.388 241.627 147.051 242.781 148.755 244.415C150.46 246.012 151.312 248.32 151.312 251.338C151.312 253.93 150.442 256.203 148.702 258.155C146.962 260.179 144.317 261.315 140.767 261.564L140.767 267.423L136.825 267.423L136.825 261.564C131.961 261.138 128.304 259.132 125.854 255.546L129.635 252.936C130.807 254.321 131.926 255.368 132.991 256.078C134.056 256.753 135.334 257.197 136.825 257.41L136.825 244.521C130.044 243.172 126.653 239.674 126.653 234.029C126.653 231.295 127.523 229.04 129.263 227.265C131.002 225.49 133.523 224.46 136.825 224.176L136.825 217.998L140.767 217.998L140.767 224.176C145.098 224.673 148.4 226.679 150.673 230.194L147.104 232.751C145.258 230.265 143.145 228.827 140.767 228.437ZM140.767 245.267L140.767 257.41C144.743 256.948 146.732 254.995 146.732 251.551C146.732 249.918 146.27 248.604 145.347 247.61C144.459 246.58 142.932 245.799 140.767 245.267ZM136.825 240.101L136.825 228.33C135.086 228.543 133.719 229.147 132.724 230.141C131.73 231.135 131.233 232.431 131.233 234.029C131.233 235.662 131.677 236.958 132.565 237.917C133.452 238.84 134.873 239.568 136.825 240.101Z" fill="white"/>
<path d="M155.36 224.496L159.94 224.496L159.94 251.178L155.36 251.178L155.36 224.496ZM160.206 261.244L155.093 261.244L155.093 256.132L160.206 256.132L160.206 261.244Z" fill="white"/>
<path d="M164.351 239.089L164.351 234.934L171.275 234.934L173.245 224.496L177.879 224.496L175.908 234.934L183.897 234.934L185.868 224.496L190.554 224.496L188.584 234.934L194.336 234.934L194.336 239.089L187.785 239.089L186.507 246.119L192.365 246.119L192.365 250.273L185.708 250.273L183.684 261.244L179.05 261.244L181.074 250.273L173.085 250.273L171.062 261.244L166.375 261.244L168.399 250.273L162.38 250.273L162.38 246.119L169.197 246.119L170.476 239.089L164.351 239.089ZM183.151 239.089L175.162 239.089L173.831 246.119L181.82 246.119L183.151 239.089Z" fill="white"/>
<path d="M202.296 261.244L222.854 224.496L227.275 224.496L206.77 261.244L202.296 261.244ZM233.187 251.019L233.187 253.309C233.187 255.901 232.53 257.942 231.216 259.434C229.902 260.925 227.985 261.671 225.464 261.671C223.05 261.671 221.168 260.925 219.819 259.434C218.505 257.942 217.848 255.901 217.848 253.309L217.848 251.019C217.848 248.427 218.523 246.403 219.872 244.947C221.221 243.491 223.085 242.763 225.464 242.763C227.914 242.763 229.814 243.491 231.163 244.947C232.512 246.367 233.187 248.391 233.187 251.019ZM225.464 258.475C226.884 258.475 227.967 258.013 228.713 257.09C229.459 256.167 229.831 254.889 229.831 253.256L229.831 251.125C229.831 247.717 228.376 246.012 225.464 246.012C224.115 246.012 223.068 246.456 222.322 247.344C221.612 248.231 221.257 249.492 221.257 251.125L221.257 253.256C221.257 256.735 222.659 258.475 225.464 258.475ZM212.309 232.325L212.309 234.615C212.309 237.207 211.652 239.248 210.339 240.74C209.025 242.231 207.107 242.977 204.587 242.977C202.172 242.977 200.29 242.231 198.941 240.74C197.627 239.248 196.97 237.207 196.97 234.615L196.97 232.325C196.97 229.733 197.645 227.709 198.994 226.253C200.344 224.797 202.208 224.069 204.587 224.069C207.036 224.069 208.936 224.797 210.285 226.253C211.635 227.673 212.309 229.697 212.309 232.325ZM204.587 239.781C206.007 239.781 207.09 239.319 207.835 238.396C208.581 237.473 208.954 236.195 208.954 234.562L208.954 232.431C208.954 229.023 207.498 227.318 204.587 227.318C203.237 227.318 202.19 227.762 201.444 228.65C200.734 229.537 200.379 230.798 200.379 232.431L200.379 234.562C200.379 238.041 201.782 239.781 204.587 239.781Z" fill="white"/>
</g>
</g>
</g>
<rect id="Finish Layer" x="-55" y="-55" width="432" height="432" fill="url(#paint0_radial)" fill-opacity="0.1"/>
</g>
</g>
</g>
</g>
</g>
</g>
</g>
<defs>
<filter id="filter0_dd" x="13" y="17" width="296" height="300" filterUnits="userSpaceOnUse" color-interpolation-filters="sRGB">
<feFlood flood-opacity="0" result="BackgroundImageFix"/>
<feColorMatrix in="SourceAlpha" type="matrix" values="0 0 0 0 0 0 0 0 0 0 0 0 0 0 0 0 0 0 127 0"/>
<feOffset dy="4"/>
<feGaussianBlur stdDeviation="2"/>
<feColorMatrix type="matrix" values="0 0 0 0 0 0 0 0 0 0 0 0 0 0 0 0 0 0 0.12 0"/>
<feBlend mode="normal" in2="BackgroundImageFix" result="effect1_dropShadow"/>
<feColorMatrix in="SourceAlpha" type="matrix" values="0 0 0 0 0 0 0 0 0 0 0 0 0 0 0 0 0 0 127 0"/>
<feOffset dy="8"/>
<feGaussianBlur stdDeviation="2"/>
<feColorMatrix type="matrix" values="0 0 0 0 0 0 0 0 0 0 0 0 0 0 0 0 0 0 0.12 0"/>
<feBlend mode="normal" in2="effect1_dropShadow" result="effect2_dropShadow"/>
<feBlend mode="normal" in="SourceGraphic" in2="effect2_dropShadow" result="shape"/>
</filter>
<filter id="filter1_dddii" x="-147.997" y="180" width="618.096" height="258.239" filterUnits="userSpaceOnUse" color-interpolation-filters="sRGB">
<feFlood flood-opacity="0" result="BackgroundImageFix"/>
<feColorMatrix in="SourceAlpha" type="matrix" values="0 0 0 0 0 0 0 0 0 0 0 0 0 0 0 0 0 0 127 0"/>
<feOffset/>
<feGaussianBlur stdDeviation="6"/>
<feColorMatrix type="matrix" values="0 0 0 0 0.195833 0 0 0 0 0.122849 0 0 0 0 0.110156 0 0 0 0.24 0"/>
<feBlend mode="normal" in2="BackgroundImageFix" result="effect1_dropShadow"/>
<feColorMatrix in="SourceAlpha" type="matrix" values="0 0 0 0 0 0 0 0 0 0 0 0 0 0 0 0 0 0 127 0"/>
<feOffset dy="4"/>
<feColorMatrix type="matrix" values="0 0 0 0 0.196078 0 0 0 0 0.121569 0 0 0 0 0.109804 0 0 0 0.24 0"/>
<feBlend mode="normal" in2="effect1_dropShadow" result="effect2_dropShadow"/>
<feColorMatrix in="SourceAlpha" type="matrix" values="0 0 0 0 0 0 0 0 0 0 0 0 0 0 0 0 0 0 127 0"/>
<feOffset dy="10"/>
<feGaussianBlur stdDeviation="6"/>
<feColorMatrix type="matrix" values="0 0 0 0 0.196078 0 0 0 0 0.121569 0 0 0 0 0.109804 0 0 0 0.36 0"/>
<feBlend mode="normal" in2="effect2_dropShadow" result="effect3_dropShadow"/>
<feBlend mode="normal" in="SourceGraphic" in2="effect3_dropShadow" result="shape"/>
<feColorMatrix in="SourceAlpha" type="matrix" values="0 0 0 0 0 0 0 0 0 0 0 0 0 0 0 0 0 0 127 0" result="hardAlpha"/>
<feOffset dy="3"/>
<feComposite in2="hardAlpha" operator="arithmetic" k2="-1" k3="1"/>
<feColorMatrix type="matrix" values="0 0 0 0 1 0 0 0 0 1 0 0 0 0 1 0 0 0 0.6 0"/>
<feBlend mode="normal" in2="shape" result="effect4_innerShadow"/>
<feColorMatrix in="SourceAlpha" type="matrix" values="0 0 0 0 0 0 0 0 0 0 0 0 0 0 0 0 0 0 127 0" result="hardAlpha"/>
<feOffset dy="-3"/>
<feComposite in2="hardAlpha" operator="arithmetic" k2="-1" k3="1"/>
<feColorMatrix type="matrix" values="0 0 0 0 0.0862745 0 0 0 0 0.0862745 0 0 0 0 0.0862745 0 0 0 0.2 0"/>
<feBlend mode="normal" in2="effect4_innerShadow" result="effect5_innerShadow"/>
</filter>
<radialGradient id="paint0_radial" cx="0" cy="0" r="1" gradientUnits="userSpaceOnUse" gradientTransform="translate(57 56.9999) rotate(45) scale(294.156)">
<stop stop-color="white"/>
<stop offset="0.375691" stop-color="white" stop-opacity="0.502762"/>
<stop offset="1" stop-color="white" stop-opacity="0"/>
</radialGradient>
<clipPath id="clip0">
<rect width="322" height="322" fill="white"/>
</clipPath>
<clipPath id="clip1">
<rect width="432" height="432" fill="white" transform="translate(-55 -55)"/>
</clipPath>
<clipPath id="clip2">
<rect width="432" height="432" fill="white" transform="translate(-55 -55)"/>
</clipPath>
</defs>
</svg>
